<?xml version="1.0" standalone="no"?>
<!DOCTYPE svg PUBLIC "-//W3C//DTD SVG 20010904//EN"
 "http://www.w3.org/TR/2001/REC-SVG-20010904/DTD/svg10.dtd">
<svg version="1.0" xmlns="http://www.w3.org/2000/svg"
 width="700.000000pt" height="700.000000pt" viewBox="0 0 700.000000 700.000000"
 preserveAspectRatio="xMidYMid meet">
<metadata>
Created by potrace 1.11, written by Peter Selinger 2001-2013
</metadata>
<g transform="translate(0.000000,700.000000) scale(0.100000,-0.100000)"
fill="#000000" stroke="none">
<path d="M2428 6656 c-101 -27 -176 -106 -197 -207 -7 -33 -11 -281 -11 -704
l0 -655 270 0 270 0 0 668 c0 743 1 732 -66 810 -66 78 -174 113 -266 88z"/>
<path d="M4658 6376 c-26 -7 -55 -19 -65 -26 -57 -44 -95 -90 -113 -137 -19
-52 -20 -79 -20 -971 0 -999 1 -983 -57 -1080 -73 -125 -238 -212 -403 -212
-124 0 -268 52 -350 126 -42 38 -100 142 -100 181 0 12 -2 23 -4 23 -2 0 -30
-16 -62 -35 -103 -62 -124 -65 -466 -65 l-308 0 0 -70 c0 -68 1 -70 28 -76
113 -26 158 -41 237 -79 187 -90 315 -245 365 -441 33 -127 34 -124 -59 -124
l-78 0 -12 59 c-28 142 -122 261 -263 331 -65 32 -117 48 -243 74 l-160 32 -3
242 -2 241 402 3 403 3 47 27 c183 108 183 358 0 466 l-47 27 -663 3 -663 3 4
-928 c3 -816 5 -934 19 -978 26 -83 48 -127 95 -193 109 -154 305 -259 519
-278 l74 -7 0 -73 0 -74 870 0 870 0 0 74 0 73 64 7 c132 13 233 63 319 155
66 72 109 155 139 271 l23 85 0 1570 0 1570 -21 45 c-31 66 -68 106 -127 134
-66 31 -129 39 -189 22z"/>
<path d="M3235 5704 c-91 -23 -158 -73 -198 -149 -20 -37 -22 -57 -25 -252
l-3 -213 158 0 c180 0 225 -9 316 -64 l57 -35 0 258 c0 256 0 257 -26 309 -29
58 -69 96 -131 124 -44 19 -115 30 -148 22z"/>
<path d="M3943 5701 c-85 -22 -166 -97 -194 -179 -10 -28 -13 -178 -13 -607
-1 -534 0 -573 18 -619 82 -215 370 -236 481 -35 l30 54 0 600 c0 597 0 600
-22 641 -25 48 -92 110 -137 129 -43 18 -123 26 -163 16z"/>
<path d="M2340 2030 l0 -180 180 0 180 0 0 180 0 180 -180 0 -180 0 0 -180z"/>
<path d="M2890 2030 l0 -180 175 0 175 0 0 180 0 180 -175 0 -175 0 0 -180z"/>
<path d="M3430 2030 l0 -180 180 0 180 0 0 180 0 180 -180 0 -180 0 0 -180z"/>
<path d="M3980 2030 l0 -180 175 0 175 0 0 180 0 180 -175 0 -175 0 0 -180z"/>
<path d="M4520 2030 l0 -180 175 0 175 0 0 180 0 180 -175 0 -175 0 0 -180z"/>
<path d="M2710 1485 l0 -205 870 0 870 0 0 205 0 205 -870 0 -870 0 0 -205z"/>
</g>
</svg>
