<svg xmlns="http://www.w3.org/2000/svg" xmlns:xlink="http://www.w3.org/1999/xlink" viewBox="0 0 1660 900">
  <defs>
    <style>
      .a {
        fill: url(#a);
      }

      .b {
        clip-path: url(#c);
      }

      .c {
        fill: url(#d);
      }

      .d {
        fill: url(#e);
      }

      .e {
        fill: url(#f);
      }

      .f {
        fill: url(#g);
      }

      .g {
        fill: url(#h);
      }

      .h {
        fill: url(#i);
      }

      .i {
        fill: url(#j);
      }

      .j {
        fill: url(#k);
      }

      .k {
        fill: url(#l);
      }

      .l {
        fill: url(#m);
      }

      .m {
        fill: url(#n);
      }

      .n {
        fill: url(#o);
      }

      .o {
        fill: url(#p);
      }

      .p {
        fill: url(#q);
      }

      .q {
        fill: url(#r);
      }

      .r {
        fill: url(#s);
      }

      .s {
        fill: url(#t);
      }

      .t {
        fill: url(#u);
      }

      .u {
        fill: url(#v);
      }

      .v {
        fill: url(#w);
      }

      .w {
        fill: url(#x);
      }

      .x {
        fill: url(#y);
      }

      .y {
        fill: url(#z);
      }

      .z {
        fill: url(#aa);
      }

      .aa {
        fill: url(#ab);
      }

      .ab {
        fill: url(#ac);
      }

      .ac {
        fill: url(#ad);
      }

      .ad {
        fill: url(#ae);
      }

      .ae {
        fill: url(#af);
      }

      .af {
        fill: url(#ag);
      }

      .ag {
        fill: url(#ah);
      }

      .ah {
        fill: url(#ai);
      }

      .ai {
        fill: url(#aj);
      }

      .aj {
        fill: url(#ak);
      }

      .ak {
        fill: url(#al);
      }

      .al {
        fill: url(#am);
      }

      .am {
        fill: url(#an);
      }

      .an {
        fill: url(#ao);
      }

      .ao {
        fill: url(#ap);
      }

      .ap {
        fill: url(#aq);
      }

      .aq {
        fill: url(#ar);
      }

      .ar {
        fill: url(#as);
      }

      .as {
        fill: url(#at);
      }

      .at {
        fill: url(#au);
      }

      .au {
        fill: url(#av);
      }

      .av {
        fill: url(#aw);
      }

      .aw {
        fill: url(#ax);
      }

      .ax {
        fill: url(#ay);
      }

      .ay {
        fill: url(#az);
      }

      .az {
        fill: url(#ba);
      }

      .ba {
        fill: url(#bb);
      }

      .bb {
        fill: url(#bc);
      }

      .bc {
        fill: url(#bd);
      }

      .bd {
        fill: url(#be);
      }

      .be {
        fill: url(#bf);
      }

      .bf {
        fill: url(#bg);
      }

      .bg {
        fill: url(#bh);
      }

      .bh {
        fill: url(#bi);
      }

      .bi {
        fill: url(#bj);
      }

      .bj {
        fill: url(#bk);
      }

      .bk {
        fill: url(#bl);
      }

      .bl {
        fill: url(#bm);
      }

      .bm {
        fill: url(#bn);
      }

      .bn {
        fill: url(#bo);
      }

      .bo {
        fill: url(#bp);
      }

      .bp {
        fill: url(#bq);
      }

      .bq {
        fill: url(#br);
      }

      .br {
        fill: url(#bs);
      }

      .bs {
        fill: url(#bt);
      }

      .bt {
        fill: url(#bu);
      }

      .bu {
        fill: url(#bv);
      }

      .bv {
        fill: url(#bw);
      }

      .bw {
        fill: url(#bx);
      }

      .bx {
        fill: url(#by);
      }

      .by {
        fill: url(#bz);
      }

      .bz {
        fill: url(#ca);
      }

      .ca {
        fill: url(#cb);
      }

      .cb {
        fill: url(#cc);
      }

      .cc {
        fill: url(#cd);
      }

      .cd {
        fill: url(#ce);
      }

      .ce {
        fill: url(#cf);
      }

      .cf {
        fill: url(#cg);
      }

      .cg {
        fill: url(#ch);
      }

      .ch {
        fill: url(#ci);
      }

      .ci {
        fill: url(#cj);
      }

      .cj {
        fill: url(#ck);
      }

      .ck {
        fill: url(#cl);
      }

      .cl {
        fill: url(#cm);
      }

      .cm {
        fill: url(#cn);
      }

      .cn {
        fill: url(#co);
      }

      .co {
        fill: url(#cp);
      }

      .cp {
        fill: url(#cq);
      }

      .cq {
        fill: url(#cr);
      }

      .cr {
        fill: url(#cs);
      }

      .cs {
        fill: url(#ct);
      }

      .ct {
        fill: url(#cu);
      }

      .cu {
        fill: url(#cv);
      }

      .cv {
        fill: url(#cw);
      }

      .cw {
        fill: url(#cx);
      }

      .cx {
        fill: url(#cy);
      }

      .cy {
        fill: url(#cz);
      }

      .cz {
        fill: url(#da);
      }

      .da {
        fill: url(#db);
      }

      .db {
        fill: url(#dc);
      }

      .dc {
        fill: url(#dd);
      }

      .dd {
        fill: url(#de);
      }

      .de {
        fill: url(#df);
      }

      .df {
        fill: url(#dg);
      }

      .dg {
        fill: url(#dh);
      }

      .dh {
        fill: url(#di);
      }

      .di {
        fill: url(#dj);
      }

      .dj {
        fill: url(#dk);
      }

      .dk {
        fill: url(#dl);
      }

      .dl {
        fill: url(#dm);
      }

      .dm {
        fill: url(#dn);
      }

      .dn {
        fill: url(#do);
      }

      .do {
        fill: url(#dp);
      }

      .dp {
        fill: url(#dq);
      }

      .dq {
        fill: url(#dr);
      }

      .dr {
        fill: url(#ds);
      }

      .ds {
        fill: url(#dt);
      }

      .dt {
        fill: url(#du);
      }

      .du {
        fill: url(#dv);
      }

      .dv {
        fill: url(#dw);
      }

      .dw {
        fill: url(#dx);
      }

      .dx {
        fill: #020202;
      }

      .dy {
        fill: #110a07;
      }

      .dz {
        fill: #331d14;
      }

      .ea {
        fill: #d3a105;
      }

      .eb {
        fill: #5e5e5d;
      }

      .ec {
        fill: #949493;
      }

      .ed {
        fill: #fcfcfc;
      }

      .ee {
        fill: #020101;
      }
    </style>
    <linearGradient id="a" x1="844.25" y1="898.79" x2="815.87" y2="2.84" gradientUnits="userSpaceOnUse">
      <stop offset="0"/>
      <stop offset="0.25" stop-color="#140000"/>
      <stop offset="0.6" stop-color="#2b0000"/>
      <stop offset="0.64" stop-color="#280000"/>
      <stop offset="0.8" stop-color="#1e0000"/>
      <stop offset="1" stop-color="#1b0000"/>
    </linearGradient>
    <clipPath id="c">
      <rect class="a" x="1" y="-1" width="1658" height="900"/>
    </clipPath>
    <linearGradient id="d" x1="673.27" y1="904.21" x2="644.89" y2="8.26" xlink:href="#a"/>
    <linearGradient id="e" x1="731.86" y1="902.35" x2="703.48" y2="6.4" xlink:href="#a"/>
    <linearGradient id="f" x1="790.45" y1="900.49" x2="762.07" y2="4.55" xlink:href="#a"/>
    <linearGradient id="g" x1="849.04" y1="898.64" x2="820.66" y2="2.69" xlink:href="#a"/>
    <linearGradient id="h" x1="857.38" y1="898.37" x2="829" y2="2.43" xlink:href="#a"/>
    <linearGradient id="i" x1="857.24" y1="898.38" x2="828.87" y2="2.43" xlink:href="#a"/>
    <linearGradient id="j" x1="857.1" y1="898.38" x2="828.72" y2="2.44" xlink:href="#a"/>
    <linearGradient id="k" x1="856.95" y1="898.39" x2="828.57" y2="2.44" xlink:href="#a"/>
    <linearGradient id="l" x1="856.8" y1="898.39" x2="828.42" y2="2.45" xlink:href="#a"/>
    <linearGradient id="m" x1="856.65" y1="898.4" x2="828.27" y2="2.45" xlink:href="#a"/>
    <linearGradient id="n" x1="856.51" y1="898.42" x2="828.13" y2="2.47" xlink:href="#a"/>
    <linearGradient id="o" x1="856.36" y1="898.41" x2="827.98" y2="2.46" xlink:href="#a"/>
    <linearGradient id="p" x1="856.21" y1="898.41" x2="827.83" y2="2.46" xlink:href="#a"/>
    <linearGradient id="q" x1="856.06" y1="898.42" x2="827.68" y2="2.47" xlink:href="#a"/>
    <linearGradient id="r" x1="855.91" y1="898.42" x2="827.54" y2="2.47" xlink:href="#a"/>
    <linearGradient id="s" x1="855.77" y1="898.42" x2="827.39" y2="2.48" xlink:href="#a"/>
    <linearGradient id="t" x1="855.62" y1="898.43" x2="827.24" y2="2.48" xlink:href="#a"/>
    <linearGradient id="u" x1="855.47" y1="898.43" x2="827.09" y2="2.49" xlink:href="#a"/>
    <linearGradient id="v" x1="855.32" y1="898.44" x2="826.95" y2="2.49" xlink:href="#a"/>
    <linearGradient id="w" x1="855.18" y1="898.44" x2="826.8" y2="2.5" xlink:href="#a"/>
    <linearGradient id="x" x1="855.03" y1="898.45" x2="826.65" y2="2.5" xlink:href="#a"/>
    <linearGradient id="y" x1="854.88" y1="898.45" x2="826.5" y2="2.51" xlink:href="#a"/>
    <linearGradient id="z" x1="854.73" y1="898.46" x2="826.36" y2="2.51" xlink:href="#a"/>
    <linearGradient id="aa" x1="854.59" y1="898.46" x2="826.21" y2="2.52" xlink:href="#a"/>
    <linearGradient id="ab" x1="854.44" y1="898.47" x2="826.06" y2="2.52" xlink:href="#a"/>
    <linearGradient id="ac" x1="854.29" y1="898.47" x2="825.91" y2="2.53" xlink:href="#a"/>
    <linearGradient id="ad" x1="854.14" y1="898.48" x2="825.76" y2="2.53" xlink:href="#a"/>
    <linearGradient id="ae" x1="854" y1="898.48" x2="825.62" y2="2.53" xlink:href="#a"/>
    <linearGradient id="af" x1="853.85" y1="898.49" x2="825.47" y2="2.54" xlink:href="#a"/>
    <linearGradient id="ag" x1="853.7" y1="898.49" x2="825.32" y2="2.54" xlink:href="#a"/>
    <linearGradient id="ah" x1="853.55" y1="898.49" x2="825.17" y2="2.55" xlink:href="#a"/>
    <linearGradient id="ai" x1="853.41" y1="898.5" x2="825.03" y2="2.55" xlink:href="#a"/>
    <linearGradient id="aj" x1="853.26" y1="898.5" x2="824.88" y2="2.56" xlink:href="#a"/>
    <linearGradient id="ak" x1="853.11" y1="898.51" x2="824.73" y2="2.56" xlink:href="#a"/>
    <linearGradient id="al" x1="852.96" y1="898.51" x2="824.58" y2="2.57" xlink:href="#a"/>
    <linearGradient id="am" x1="852.81" y1="898.52" x2="824.44" y2="2.57" xlink:href="#a"/>
    <linearGradient id="an" x1="852.67" y1="898.52" x2="824.29" y2="2.58" xlink:href="#a"/>
    <linearGradient id="ao" x1="852.52" y1="898.53" x2="824.14" y2="2.58" xlink:href="#a"/>
    <linearGradient id="ap" x1="852.37" y1="898.53" x2="823.99" y2="2.59" xlink:href="#a"/>
    <linearGradient id="aq" x1="852.22" y1="898.54" x2="823.85" y2="2.59" xlink:href="#a"/>
    <linearGradient id="ar" x1="852.08" y1="898.54" x2="823.7" y2="2.6" xlink:href="#a"/>
    <linearGradient id="as" x1="851.93" y1="898.55" x2="823.55" y2="2.6" xlink:href="#a"/>
    <linearGradient id="at" x1="851.78" y1="898.55" x2="823.4" y2="2.61" xlink:href="#a"/>
    <linearGradient id="au" x1="851.63" y1="898.56" x2="823.26" y2="2.61" xlink:href="#a"/>
    <linearGradient id="av" x1="851.49" y1="898.56" x2="823.11" y2="2.61" xlink:href="#a"/>
    <linearGradient id="aw" x1="851.34" y1="898.57" x2="822.96" y2="2.62" xlink:href="#a"/>
    <linearGradient id="ax" x1="851.19" y1="898.57" x2="822.81" y2="2.62" xlink:href="#a"/>
    <linearGradient id="ay" x1="851.04" y1="898.57" x2="822.66" y2="2.63" xlink:href="#a"/>
    <linearGradient id="az" x1="850.9" y1="898.58" x2="822.52" y2="2.63" xlink:href="#a"/>
    <linearGradient id="ba" x1="850.75" y1="898.58" x2="822.37" y2="2.64" xlink:href="#a"/>
    <linearGradient id="bb" x1="850.6" y1="898.59" x2="822.22" y2="2.64" xlink:href="#a"/>
    <linearGradient id="bc" x1="850.45" y1="898.59" x2="822.07" y2="2.65" xlink:href="#a"/>
    <linearGradient id="bd" x1="850.31" y1="898.6" x2="821.93" y2="2.65" xlink:href="#a"/>
    <linearGradient id="be" x1="850.16" y1="898.6" x2="821.78" y2="2.66" xlink:href="#a"/>
    <linearGradient id="bf" x1="850.01" y1="898.61" x2="821.63" y2="2.66" xlink:href="#a"/>
    <linearGradient id="bg" x1="849.86" y1="898.61" x2="821.48" y2="2.67" xlink:href="#a"/>
    <linearGradient id="bh" x1="849.71" y1="898.62" x2="821.34" y2="2.67" xlink:href="#a"/>
    <linearGradient id="bi" x1="849.57" y1="898.62" x2="821.19" y2="2.68" xlink:href="#a"/>
    <linearGradient id="bj" x1="849.42" y1="898.63" x2="821.04" y2="2.68" xlink:href="#a"/>
    <linearGradient id="bk" x1="849.27" y1="898.63" x2="820.89" y2="2.68" xlink:href="#a"/>
    <linearGradient id="bl" x1="849.12" y1="898.64" x2="820.75" y2="2.69" xlink:href="#a"/>
    <linearGradient id="bm" x1="848.98" y1="898.64" x2="820.6" y2="2.69" xlink:href="#a"/>
    <linearGradient id="bn" x1="848.83" y1="898.64" x2="820.45" y2="2.7" xlink:href="#a"/>
    <linearGradient id="bo" x1="848.68" y1="898.65" x2="820.3" y2="2.7" xlink:href="#a"/>
    <linearGradient id="bp" x1="848.53" y1="898.65" x2="820.16" y2="2.71" xlink:href="#a"/>
    <linearGradient id="bq" x1="848.39" y1="898.66" x2="820.01" y2="2.71" xlink:href="#a"/>
    <linearGradient id="br" x1="848.24" y1="898.66" x2="819.86" y2="2.72" xlink:href="#a"/>
    <linearGradient id="bs" x1="848.09" y1="898.67" x2="819.71" y2="2.72" xlink:href="#a"/>
    <linearGradient id="bt" x1="847.94" y1="898.67" x2="819.56" y2="2.73" xlink:href="#a"/>
    <linearGradient id="bu" x1="847.8" y1="898.68" x2="819.42" y2="2.73" xlink:href="#a"/>
    <linearGradient id="bv" x1="847.65" y1="898.68" x2="819.27" y2="2.74" xlink:href="#a"/>
    <linearGradient id="bw" x1="847.5" y1="898.69" x2="819.12" y2="2.74" xlink:href="#a"/>
    <linearGradient id="bx" x1="847.35" y1="898.69" x2="818.97" y2="2.75" xlink:href="#a"/>
    <linearGradient id="by" x1="847.2" y1="898.7" x2="818.83" y2="2.75" xlink:href="#a"/>
    <linearGradient id="bz" x1="847.06" y1="898.7" x2="818.68" y2="2.75" xlink:href="#a"/>
    <linearGradient id="ca" x1="846.91" y1="898.71" x2="818.53" y2="2.76" xlink:href="#a"/>
    <linearGradient id="cb" x1="846.76" y1="898.71" x2="818.38" y2="2.76" xlink:href="#a"/>
    <linearGradient id="cc" x1="846.61" y1="898.71" x2="818.24" y2="2.77" xlink:href="#a"/>
    <linearGradient id="cd" x1="846.47" y1="898.72" x2="818.09" y2="2.77" xlink:href="#a"/>
    <linearGradient id="ce" x1="846.32" y1="898.72" x2="817.94" y2="2.78" xlink:href="#a"/>
    <linearGradient id="cf" x1="846.17" y1="898.73" x2="817.79" y2="2.78" xlink:href="#a"/>
    <linearGradient id="cg" x1="846.02" y1="898.73" x2="817.65" y2="2.79" xlink:href="#a"/>
    <linearGradient id="ch" x1="845.88" y1="898.74" x2="817.5" y2="2.79" xlink:href="#a"/>
    <linearGradient id="ci" x1="845.73" y1="898.74" x2="817.35" y2="2.8" xlink:href="#a"/>
    <linearGradient id="cj" x1="845.58" y1="898.75" x2="817.2" y2="2.8" xlink:href="#a"/>
    <linearGradient id="ck" x1="845.43" y1="898.75" x2="817.06" y2="2.81" xlink:href="#a"/>
    <linearGradient id="cl" x1="845.29" y1="898.76" x2="816.91" y2="2.81" xlink:href="#a"/>
    <linearGradient id="cm" x1="845.14" y1="898.76" x2="816.76" y2="2.82" xlink:href="#a"/>
    <linearGradient id="cn" x1="844.99" y1="898.77" x2="816.61" y2="2.82" xlink:href="#a"/>
    <linearGradient id="co" x1="844.84" y1="898.77" x2="816.46" y2="2.82" xlink:href="#a"/>
    <linearGradient id="cp" x1="844.7" y1="898.78" x2="816.32" y2="2.83" xlink:href="#a"/>
    <linearGradient id="cq" x1="844.55" y1="898.78" x2="816.17" y2="2.83" xlink:href="#a"/>
    <linearGradient id="cr" x1="844.4" y1="898.78" x2="816.02" y2="2.84" xlink:href="#a"/>
    <linearGradient id="cs" x1="844.25" y1="898.79" x2="815.87" y2="2.84" xlink:href="#a"/>
    <linearGradient id="ct" x1="844.1" y1="898.79" x2="815.73" y2="2.85" xlink:href="#a"/>
    <linearGradient id="cu" x1="843.96" y1="898.8" x2="815.58" y2="2.85" xlink:href="#a"/>
    <linearGradient id="cv" x1="843.81" y1="898.8" x2="815.43" y2="2.86" xlink:href="#a"/>
    <linearGradient id="cw" x1="843.66" y1="898.81" x2="815.28" y2="2.86" xlink:href="#a"/>
    <linearGradient id="cx" x1="843.51" y1="898.81" x2="815.14" y2="2.87" xlink:href="#a"/>
    <linearGradient id="cy" x1="843.37" y1="898.82" x2="814.99" y2="2.87" xlink:href="#a"/>
    <linearGradient id="cz" x1="843.22" y1="898.82" x2="814.84" y2="2.88" xlink:href="#a"/>
    <linearGradient id="da" x1="843.07" y1="898.83" x2="814.69" y2="2.88" xlink:href="#a"/>
    <linearGradient id="db" x1="842.92" y1="898.83" x2="814.55" y2="2.89" xlink:href="#a"/>
    <linearGradient id="dc" x1="842.78" y1="898.84" x2="814.4" y2="2.89" xlink:href="#a"/>
    <linearGradient id="dd" x1="842.63" y1="898.84" x2="814.25" y2="2.89" xlink:href="#a"/>
    <linearGradient id="de" x1="842.48" y1="898.85" x2="814.1" y2="2.9" xlink:href="#a"/>
    <linearGradient id="df" x1="842.33" y1="898.85" x2="813.95" y2="2.9" xlink:href="#a"/>
    <linearGradient id="dg" x1="842.19" y1="898.85" x2="813.81" y2="2.91" xlink:href="#a"/>
    <linearGradient id="dh" x1="842.04" y1="898.86" x2="813.66" y2="2.91" xlink:href="#a"/>
    <linearGradient id="di" x1="841.89" y1="898.86" x2="813.51" y2="2.92" xlink:href="#a"/>
    <linearGradient id="dj" x1="841.74" y1="898.87" x2="813.36" y2="2.92" xlink:href="#a"/>
    <linearGradient id="dk" x1="841.6" y1="898.87" x2="813.22" y2="2.93" xlink:href="#a"/>
    <linearGradient id="dl" x1="841.45" y1="898.88" x2="813.07" y2="2.93" xlink:href="#a"/>
    <linearGradient id="dm" x1="841.3" y1="898.88" x2="812.92" y2="2.94" xlink:href="#a"/>
    <linearGradient id="dn" x1="841.15" y1="898.89" x2="812.77" y2="2.94" xlink:href="#a"/>
    <linearGradient id="do" x1="841" y1="898.89" x2="812.63" y2="2.95" xlink:href="#a"/>
    <linearGradient id="dp" x1="840.86" y1="898.9" x2="812.48" y2="2.95" xlink:href="#a"/>
    <linearGradient id="dq" x1="840.71" y1="898.9" x2="812.33" y2="2.96" xlink:href="#a"/>
    <linearGradient id="dr" x1="840.56" y1="898.91" x2="812.18" y2="2.96" xlink:href="#a"/>
    <linearGradient id="ds" x1="840.41" y1="898.91" x2="812.04" y2="2.97" xlink:href="#a"/>
    <linearGradient id="dt" x1="840.27" y1="898.92" x2="811.89" y2="2.97" xlink:href="#a"/>
    <linearGradient id="du" x1="840.12" y1="898.92" x2="811.74" y2="2.97" xlink:href="#a"/>
    <linearGradient id="dv" x1="839.97" y1="898.93" x2="811.59" y2="2.98" xlink:href="#a"/>
    <linearGradient id="dw" x1="839.82" y1="898.93" x2="811.45" y2="2.98" xlink:href="#a"/>
    <linearGradient id="dx" x1="835.4" y1="899.07" x2="807.02" y2="3.12" xlink:href="#a"/>
  </defs>
  <title>intro</title>
  <g>
    <rect class="a" x="1" y="-1" width="1658" height="900"/>
    <g class="b">
      <polygon class="c" points="1289.8 -1 1 50.2 1 -1 1289.8 -1"/>
      <polygon class="d" points="1407.3 -1 1 54.9 1 50.2 1289.8 -1 1407.3 -1"/>
      <polygon class="e" points="1524.7 -1 1 59.5 1 54.9 1407.3 -1 1524.7 -1"/>
      <polygon class="f" points="1642.2 -1 1 64.2 1 59.5 1524.7 -1 1642.2 -1"/>
      <polygon class="g" points="1659 3 1 68.9 1 64.2 1642.2 -1 1659 -1 1659 3"/>
      <polygon class="h" points="1659 7.7 1 73.5 1 68.9 1659 3 1659 7.7"/>
      <polygon class="i" points="1659 12.3 1 78.2 1 73.5 1659 7.7 1659 12.3"/>
      <polygon class="j" points="1659 17 1 82.9 1 78.2 1659 12.3 1659 17"/>
      <polygon class="k" points="1659 21.7 1 87.5 1 82.9 1659 17 1659 21.7"/>
      <polygon class="l" points="1659 26.3 1 92.2 1 87.5 1659 21.7 1659 26.3"/>
      <polygon class="m" points="1659 31 1 96.9 1 92.2 1659 26.3 1659 31"/>
      <polygon class="n" points="1659 35.7 1 101.5 1 96.9 1659 31 1659 35.7"/>
      <polygon class="o" points="1659 40.3 1 106.2 1 101.5 1659 35.7 1659 40.3"/>
      <polygon class="p" points="1659 45 1 110.8 1 106.2 1659 40.3 1659 45"/>
      <polygon class="q" points="1659 49.7 1 115.5 1 110.8 1659 45 1659 49.7"/>
      <polygon class="r" points="1659 54.3 1 120.2 1 115.5 1659 49.7 1659 54.3"/>
      <polygon class="s" points="1659 59 1 124.8 1 120.2 1659 54.3 1659 59"/>
      <polygon class="t" points="1659 63.6 1 129.5 1 124.8 1659 59 1659 63.6"/>
      <polygon class="u" points="1659 68.3 1 134.2 1 129.5 1659 63.6 1659 68.3"/>
      <polygon class="v" points="1659 73 1 138.8 1 134.2 1659 68.3 1659 73"/>
      <polygon class="w" points="1659 77.6 1 143.5 1 138.8 1659 73 1659 77.6"/>
      <polygon class="x" points="1659 82.3 1 148.2 1 143.5 1659 77.6 1659 82.3"/>
      <polygon class="y" points="1659 87 1 152.8 1 148.2 1659 82.3 1659 87"/>
      <polygon class="z" points="1659 91.6 1 157.5 1 152.8 1659 87 1659 91.6"/>
      <polygon class="aa" points="1659 96.3 1 162.2 1 157.5 1659 91.6 1659 96.3"/>
      <polygon class="ab" points="1659 101 1 166.8 1 162.2 1659 96.3 1659 101"/>
      <polygon class="ac" points="1659 105.6 1 171.5 1 166.8 1659 101 1659 105.6"/>
      <polygon class="ad" points="1659 110.3 1 176.2 1 171.5 1659 105.6 1659 110.3"/>
      <polygon class="ae" points="1659 115 1 180.8 1 176.2 1659 110.3 1659 115"/>
      <polygon class="af" points="1659 119.6 1 185.5 1 180.8 1659 115 1659 119.6"/>
      <polygon class="ag" points="1659 124.3 1 190.2 1 185.5 1659 119.6 1659 124.3"/>
      <polygon class="ah" points="1659 129 1 194.8 1 190.2 1659 124.3 1659 129"/>
      <polygon class="ai" points="1659 133.6 1 199.5 1 194.8 1659 129 1659 133.6"/>
      <polygon class="aj" points="1659 138.3 1 204.2 1 199.5 1659 133.6 1659 138.3"/>
      <polygon class="ak" points="1659 143 1 208.8 1 204.2 1659 138.3 1659 143"/>
      <polygon class="al" points="1659 147.6 1 213.5 1 208.8 1659 143 1659 147.6"/>
      <polygon class="am" points="1659 152.3 1 218.2 1 213.5 1659 147.6 1659 152.3"/>
      <polygon class="an" points="1659 157 1 222.8 1 218.2 1659 152.3 1659 157"/>
      <polygon class="ao" points="1659 161.6 1 227.5 1 222.8 1659 157 1659 161.6"/>
      <polygon class="ap" points="1659 166.3 1 232.2 1 227.5 1659 161.6 1659 166.3"/>
      <polygon class="aq" points="1659 171 1 236.8 1 232.2 1659 166.3 1659 171"/>
      <polygon class="ar" points="1659 175.6 1 241.5 1 236.8 1659 171 1659 175.6"/>
      <polygon class="as" points="1659 180.3 1 246.1 1 241.5 1659 175.6 1659 180.3"/>
      <polygon class="at" points="1659 184.9 1 250.8 1 246.1 1659 180.3 1659 184.9"/>
      <polygon class="au" points="1659 189.6 1 255.5 1 250.8 1659 184.9 1659 189.6"/>
      <polygon class="av" points="1659 194.3 1 260.1 1 255.5 1659 189.6 1659 194.3"/>
      <polygon class="aw" points="1659 198.9 1 264.8 1 260.1 1659 194.3 1659 198.9"/>
      <polygon class="ax" points="1659 203.6 1 269.5 1 264.8 1659 198.9 1659 203.6"/>
      <polygon class="ay" points="1659 208.3 1 274.1 1 269.5 1659 203.6 1659 208.3"/>
      <polygon class="az" points="1659 212.9 1 278.8 1 274.1 1659 208.3 1659 212.9"/>
      <polygon class="ba" points="1659 217.6 1 283.5 1 278.8 1659 212.9 1659 217.6"/>
      <polygon class="bb" points="1659 222.3 1 288.1 1 283.5 1659 217.6 1659 222.3"/>
      <polygon class="bc" points="1659 226.9 1 292.8 1 288.1 1659 222.3 1659 226.9"/>
      <polygon class="bd" points="1659 231.6 1 297.5 1 292.8 1659 226.9 1659 231.6"/>
      <polygon class="be" points="1659 236.3 1 302.1 1 297.5 1659 231.6 1659 236.3"/>
      <polygon class="bf" points="1659 240.9 1 306.8 1 302.1 1659 236.3 1659 240.9"/>
      <polygon class="bg" points="1659 245.6 1 311.5 1 306.8 1659 240.9 1659 245.6"/>
      <polygon class="bh" points="1659 250.3 1 316.1 1 311.5 1659 245.6 1659 250.3"/>
      <polygon class="bi" points="1659 254.9 1 320.8 1 316.1 1659 250.3 1659 254.9"/>
      <polygon class="bj" points="1659 259.6 1 325.5 1 320.8 1659 254.9 1659 259.6"/>
      <polygon class="bk" points="1659 264.3 1 330.1 1 325.5 1659 259.6 1659 264.3"/>
      <polygon class="bl" points="1659 268.9 1 334.8 1 330.1 1659 264.3 1659 268.9"/>
      <polygon class="bm" points="1659 273.6 1 339.5 1 334.8 1659 268.9 1659 273.6"/>
      <polygon class="bn" points="1659 278.3 1 344.1 1 339.5 1659 273.6 1659 278.3"/>
      <polygon class="bo" points="1659 282.9 1 348.8 1 344.1 1659 278.3 1659 282.9"/>
      <polygon class="bp" points="1659 287.6 1 353.5 1 348.8 1659 282.9 1659 287.6"/>
      <polygon class="bq" points="1659 292.3 1 358.1 1 353.5 1659 287.6 1659 292.3"/>
      <polygon class="br" points="1659 296.9 1 362.8 1 358.1 1659 292.3 1659 296.9"/>
      <polygon class="bs" points="1659 301.6 1 367.4 1 362.8 1659 296.9 1659 301.6"/>
      <polygon class="bt" points="1659 306.3 1 372.1 1 367.4 1659 301.6 1659 306.3"/>
      <polygon class="bu" points="1659 310.9 1 376.8 1 372.1 1659 306.3 1659 310.9"/>
      <polygon class="bv" points="1659 315.6 1 381.4 1 376.8 1659 310.9 1659 315.6"/>
      <polygon class="bw" points="1659 320.2 1 386.1 1 381.4 1659 315.6 1659 320.2"/>
      <polygon class="bx" points="1659 324.9 1 390.8 1 386.1 1659 320.2 1659 324.9"/>
      <polygon class="by" points="1659 329.6 1 395.4 1 390.8 1659 324.9 1659 329.6"/>
      <polygon class="bz" points="1659 334.2 1 400.1 1 395.4 1659 329.6 1659 334.2"/>
      <polygon class="ca" points="1659 338.9 1 404.8 1 400.1 1659 334.2 1659 338.9"/>
      <polygon class="cb" points="1659 343.6 1 409.4 1 404.8 1659 338.9 1659 343.6"/>
      <polygon class="cc" points="1659 348.2 1 414.1 1 409.4 1659 343.6 1659 348.2"/>
      <polygon class="cd" points="1659 352.9 1 418.8 1 414.1 1659 348.2 1659 352.9"/>
      <polygon class="ce" points="1659 357.6 1 423.4 1 418.8 1659 352.9 1659 357.6"/>
      <polygon class="cf" points="1659 362.2 1 428.1 1 423.4 1659 357.6 1659 362.2"/>
      <polygon class="cg" points="1659 366.9 1 432.8 1 428.1 1659 362.2 1659 366.9"/>
      <polygon class="ch" points="1659 371.6 1 437.4 1 432.8 1659 366.9 1659 371.6"/>
      <polygon class="ci" points="1659 376.2 1 442.1 1 437.4 1659 371.6 1659 376.2"/>
      <polygon class="cj" points="1659 380.9 1 446.8 1 442.1 1659 376.2 1659 380.9"/>
      <polygon class="ck" points="1659 385.6 1 451.4 1 446.8 1659 380.9 1659 385.6"/>
      <polygon class="cl" points="1659 390.2 1 456.1 1 451.4 1659 385.6 1659 390.2"/>
      <polygon class="cm" points="1659 394.9 1 460.8 1 456.1 1659 390.2 1659 394.9"/>
      <polygon class="cn" points="1659 399.6 1 465.4 1 460.8 1659 394.9 1659 399.6"/>
      <polygon class="co" points="1659 404.2 1 470.1 1 465.4 1659 399.6 1659 404.2"/>
      <polygon class="cp" points="1659 408.9 1 474.8 1 470.1 1659 404.2 1659 408.9"/>
      <polygon class="cq" points="1659 413.6 1 479.4 1 474.8 1659 408.9 1659 413.6"/>
      <polygon class="cr" points="1659 418.2 1 484.1 1 479.4 1659 413.6 1659 418.2"/>
      <polygon class="cs" points="1659 422.9 1 488.8 1 484.1 1659 418.2 1659 422.9"/>
      <polygon class="ct" points="1659 427.6 1 493.4 1 488.8 1659 422.9 1659 427.6"/>
      <polygon class="cu" points="1659 432.2 1 498.1 1 493.4 1659 427.6 1659 432.2"/>
      <polygon class="cv" points="1659 436.9 1 502.7 1 498.1 1659 432.2 1659 436.9"/>
      <polygon class="cw" points="1659 441.5 1 507.4 1 502.7 1659 436.9 1659 441.5"/>
      <polygon class="cx" points="1659 446.2 1 512.1 1 507.4 1659 441.5 1659 446.2"/>
      <polygon class="cy" points="1659 450.9 1 516.7 1 512.1 1659 446.2 1659 450.9"/>
      <polygon class="cz" points="1659 455.5 1 521.4 1 516.7 1659 450.9 1659 455.5"/>
      <polygon class="da" points="1659 460.2 1 526.1 1 521.4 1659 455.5 1659 460.2"/>
      <polygon class="db" points="1659 464.9 1 530.7 1 526.1 1659 460.2 1659 464.9"/>
      <polygon class="dc" points="1659 469.5 1 535.4 1 530.7 1659 464.9 1659 469.5"/>
      <polygon class="dd" points="1659 474.2 1 540.1 1 535.4 1659 469.5 1659 474.2"/>
      <polygon class="de" points="1659 478.9 1 544.7 1 540.1 1659 474.2 1659 478.9"/>
      <polygon class="df" points="1659 483.5 1 549.4 1 544.7 1659 478.9 1659 483.5"/>
      <polygon class="dg" points="1659 488.2 1 554.1 1 549.4 1659 483.5 1659 488.2"/>
      <polygon class="dh" points="1659 492.9 1 558.7 1 554.1 1659 488.2 1659 492.9"/>
      <polygon class="di" points="1659 497.5 1 563.4 1 558.7 1659 492.9 1659 497.5"/>
      <polygon class="dj" points="1659 502.2 1 568.1 1 563.4 1659 497.5 1659 502.2"/>
      <polygon class="dk" points="1659 506.9 1 572.7 1 568.1 1659 502.2 1659 506.9"/>
      <polygon class="dl" points="1659 511.5 1 577.4 1 572.7 1659 506.9 1659 511.5"/>
      <polygon class="dm" points="1659 516.2 1 582.1 1 577.4 1659 511.5 1659 516.2"/>
      <polygon class="dn" points="1659 520.9 1 586.7 1 582.1 1659 516.2 1659 520.9"/>
      <polygon class="do" points="1659 525.5 1 591.4 1 586.7 1659 520.9 1659 525.5"/>
      <polygon class="dp" points="1659 530.2 1 596.1 1 591.4 1659 525.5 1659 530.2"/>
      <polygon class="dq" points="1659 534.9 1 600.7 1 596.1 1659 530.2 1659 534.9"/>
      <polygon class="dr" points="1659 539.5 1 605.4 1 600.7 1659 534.9 1659 539.5"/>
      <polygon class="ds" points="1659 544.2 1 610.1 1 605.4 1659 539.5 1659 544.2"/>
      <polygon class="dt" points="1659 548.9 1 614.7 1 610.1 1659 544.2 1659 548.9"/>
      <polygon class="du" points="1659 553.5 1 619.4 1 614.7 1659 548.9 1659 553.5"/>
      <polygon class="dv" points="1659 558.2 1 624 1 619.4 1659 553.5 1659 558.2"/>
      <polygon class="dw" points="1 624 1659 558.2 1659 899 1 899 1 624"/>
    </g>
  </g>
  <g>
    <path class="dx" d="M1009.3,29S890,96,946.7,216.9c0,0,64-40.3,150.1-61.5C1096.8,155.4,965.1,129.6,1009.3,29Z"/>
    <g>
      <path class="dy" d="M943.6,773.5s139.2,42.2,305.3,61.6c143.6,37.9,315.3,61.3,394.3,54.2L1632,543.4l-13.2-333s-180.8-72.1-376.3-70.6c-98.7.7-203.5,20.2-295.8,77.1C946.7,216.9,923.7,528.8,943.6,773.5Z"/>
      <path d="M1239.4,140.2s-15.7,415.9,9.5,694.9"/>
      <path class="dx" d="M1538.3,30.9c23.6-13.4,140.5,46.3,81,181.3,0,0-68.8-28.6-155.5-46.7C1463.8,165.5,1592.7,126.4,1538.3,30.9Z"/>
      <path class="dz" d="M1117.5,181.5c-.9,9.6-1.4,19.2-1.8,28.8s-.6,19.3-.7,29q0,7.2.3,14.4c.2,4.9.5,9.7.9,14.5l.6,7.2.7,7.1c.4,4.8.9,9.6,1.6,14.3a111.2,111.2,0,0,0,2.6,14,21.4,21.4,0,0,0,.9,3.4l.5,1.7.5,1.7c.7,2.4,1.4,4.7,2,7.1a136.1,136.1,0,0,1,3,14.4,103,103,0,0,1,1.4,14.6,258.3,258.3,0,0,1-1.2,29.2c-.5,4.9-1.1,9.7-1.9,14.5a146.2,146.2,0,0,1-2.8,14.4v-.2c-2.1,14-4.1,28.1-5.9,42.2-.8,7-1.7,14-2.3,21.1l-.5,5.3-.3,5.3a46.9,46.9,0,0,0-.1,5.3c0,1.7.1,3.5.1,5.3.6,14.2,1.2,28.4,2,42.6.4,7.1.9,14.2,1.4,21.2.2,3.6.5,7.1.8,10.7s.7,7.1,1.3,10.5h0l3,23.6c1,7.8,2,15.6,2.8,23.5s1.5,15.8,2.1,23.7l.3,5.9c.1,2,.3,3.9.3,5.9s.2,4,.2,6,0,2-.1,3l-.2,3.1v-.2l.6,29.2.4,14.6c.2,4.8.3,9.7.7,14.5l-1,.2c-.7-4.9-1.1-9.8-1.4-14.6l-.6-7.3-.4-7.3-.6-14.6c-.3-4.9-.4-9.8-.6-14.6h0v-3a28,28,0,0,0,0-2.9,58.6,58.6,0,0,0-.1-5.9c0-1.9-.2-3.9-.3-5.9l-.3-5.9-.9-11.8-.9-11.8-1.8-23.6-2.1-23.6h0c-.7-7.1-1.1-14.2-1.5-21.3l-1.3-21.2-1.4-21.3-1.4-21.2a139,139,0,0,1,0-21.4c.5-7.1,1-14.2,1.7-21.3,1.4-14.1,3.1-28.3,5-42.4h0c1.1-4.6,1.9-9.4,2.6-14.1s1.1-9.5,1.5-14.3a275.7,275.7,0,0,0,.7-28.7,108.6,108.6,0,0,0-1.5-14.1,134.5,134.5,0,0,0-3.1-14c-.6-2.3-1.3-4.5-2-6.8l-.5-1.7-.5-1.8c-.4-1.2-.7-2.4-1-3.6-1.2-4.8-2-9.7-2.7-14.5s-1.1-9.7-1.5-14.5-.4-9.7-.4-14.6.2-9.7.3-14.5l.3-14.5c.6-19.4,1.8-38.7,3.3-57.9Z"/>
      <path class="dz" d="M995.6,320.5c-.4,16.3-.9,32.7-1.4,49.1s-1.1,32.7-1.9,49.1c-.2,2-.3,4-.4,6.1v6c0,4.1.1,8.2.1,12.3.2,8.2.5,16.3.9,24.5s1,16.2,1.9,24.3c.5,4,1,8.1,1.8,12a54.3,54.3,0,0,0,1.3,5.8,26.6,26.6,0,0,0,1.9,5.2l.2.4v.4h0c.7,6,1.2,11.8,1.6,17.8s.5,11.8.5,17.8-.3,11.9-.9,17.8a109.5,109.5,0,0,1-3.1,17.7v-.2c-1,6.4-1.6,13-2,19.6s-.4,13.1-.3,19.7.4,13.2,1.1,19.7,1.5,13.1,2.5,19.6l-1,.2c-1.2-6.5-2.3-13-3-19.6s-1.3-13.2-1.6-19.8-.3-13.3-.2-19.9a192.2,192.2,0,0,1,1.5-20h0a109.8,109.8,0,0,0,2.6-17.2c.4-5.8.5-11.7.4-17.5s-.5-11.7-1-17.5-1.1-11.7-2-17.4h0l.3.8c-2.1-4.3-2.8-8.4-3.5-12.5s-1.2-8.2-1.6-12.3c-.8-8.3-1.2-16.5-1.5-24.7s-.3-16.4-.3-24.6c-.1-4.1,0-8.2,0-12.3v-4.7l.2-1.5c.1-2,.3-4.1.4-6.1,1.2-16.3,2.1-32.7,2.9-49s1.7-32.7,2.4-49.1Z"/>
      <path class="dz" d="M1041.5,225l.5,15,.3,15.1v7.5c-.1,2.6-.1,5.1-.1,7.6-.1,5-.3,10.1-.8,15.1s-1.1,10-1.6,15-1.1,9.9-1.5,14.9-.6,9.9-.6,14.9v3.7l.2,3.7c.1,1.2.3,2.4.5,3.6a33.8,33.8,0,0,0,.8,3.4v.2q3.2,15,5.7,30c.9,5,1.7,10,2.4,15.1.4,2.5.7,5.1,1,7.6s.4,5.2.4,7.8V405l3.6,35.4c.5,5.9,1.1,11.8,1.6,17.7l.6,8.9.2,8.9c.4,23.7.7,47.3.6,71,0,6-.1,11.9-.3,17.8,0,1.5-.1,3-.2,4.5s-.1,2.9-.2,4.4l-.7,8.9c-.8,11.7-1.1,23.6-1,35.4s.3,23.6,1.2,35.4a217.2,217.2,0,0,0,5.1,35l-1,.3c-3-11.6-4.4-23.4-5.5-35.2s-1.4-23.7-1.6-35.5.1-23.7.8-35.6l.6-8.8c.1-1.5.1-3,.2-4.4s.1-3,.1-4.5c.1-5.9.2-11.8.2-17.7-.1-23.6-.6-47.3-1.2-70.9l-.3-8.9c-.2-2.9-.4-5.8-.7-8.8-.5-5.9-1.1-11.7-1.7-17.6-1.2-11.8-2.5-23.6-3.8-35.3h0a108.7,108.7,0,0,0-1.4-14.9q-1.1-7.5-2.4-15c-1.7-10-3.6-20-5.6-29.9v.2c-.3-1.3-.7-2.6-.9-3.9s-.4-2.6-.5-3.9l-.3-3.8v-3.9c0-5.1.3-10.1.7-15.2s.9-10,1.7-15,1.8-10,2.8-14.9c2-9.7,2.4-19.9,2.4-29.9,0-2.5,0-5-.1-7.5s-.1-5-.2-7.5c-.2-5.1-.6-10.1-1-15.1Z"/>
      <path class="dz" d="M1057.3,194.3l1.3,27.9c.4,9.3.8,18.6,1.1,27.9s.7,18.6.9,27.9.4,18.6,0,28h0v.2c-.1.7-.3,1.6-.4,2.4l-.3,2.5c-.3,1.6-.4,3.3-.6,5-.4,3.3-.6,6.7-.9,10.1l-.6,10.1-.5,10.2-.4,10.1c-.2,3.4-.2,6.8-.4,10.2s-.3,6.8-.6,10.2-.5,6.7-.7,10.1c-.6,6.8-1,13.6-1.1,20.4s-.4,13.6-.4,20.4-.2,13.6-.2,20.4.1,13.6.2,20.4h-1c0-13.6-.2-27.2-.3-40.8-.2-6.8-.1-13.6-.2-20.4V397.4c-.1-3.4-.3-6.8-.4-10.2-.2-6.9-.5-13.7-.2-20.5s.5-13.6.9-20.4l.7-10.2c.3-3.4.6-6.8,1-10.2s.7-6.8,1.2-10.2c.3-1.7.5-3.4.8-5.1a23.4,23.4,0,0,1,.4-2.6c.2-.8.3-1.6.6-2.6v.3c.8-9.1,1.1-18.4,1.2-27.7s.1-18.6,0-27.9-.3-18.6-.6-27.9l-.5-13.9-.7-13.9Z"/>
      <path class="dz" d="M1099.4,384.5a24.6,24.6,0,0,1-.4,5.4,9,9,0,0,1-.8,2.8,4.2,4.2,0,0,1-.9,1.4,2.6,2.6,0,0,1-2,1,3.4,3.4,0,0,1-2.1-.9,4.1,4.1,0,0,1-1-1.4,8.2,8.2,0,0,1-1.1-2.8,22.2,22.2,0,0,1-.7-5.7,22.5,22.5,0,0,1,.9-5.6,10.7,10.7,0,0,1,1.2-2.7,4.5,4.5,0,0,1,1.1-1.3,2.5,2.5,0,0,1,2-.8,2.6,2.6,0,0,1,1.9.9,7,7,0,0,1,.8,1.4,17.2,17.2,0,0,1,.8,2.8l.3,2.7A26.1,26.1,0,0,0,1099.4,384.5Zm-1,0a21.1,21.1,0,0,0-.2-2.6,11,11,0,0,0-.6-2.6,7.3,7.3,0,0,0-.9-2.2c-.4-.7-1.1-1.1-1.1-1a2.1,2.1,0,0,0-.9,1.1,15.5,15.5,0,0,0-.6,2.3,19.4,19.4,0,0,0-.5,4.9,20.9,20.9,0,0,0,.1,2.5l.3,2.4c.2.8.4,1.6.6,2.2s.8,1.1.7,1.1h.4l.7-.8a11.2,11.2,0,0,0,1-2.2A27.7,27.7,0,0,0,1098.4,384.5Z"/>
      <path class="dz" d="M1174.1,183.8c1,6.1,2.4,12.1,3.7,18.2.7,3,2.1,5.9,2.5,8.9s.9,6.1,1.3,9.2.8,6.1,1.3,9.2,1.5,6,2.3,9,1.6,5.9,2.6,8.8.9,3,1.4,4.4a30.1,30.1,0,0,0,1.7,4h.1v.2a90.9,90.9,0,0,1,3.3,19.9,122.7,122.7,0,0,1-.2,20.1c-.3,3.4-.7,6.7-1.3,10l-.2,1.2a6,6,0,0,0-.2,1.2l-.3,2.4-.5,4.9c-.6,6.6-1,13.2-1.1,19.8a114.8,114.8,0,0,0,1,19.5c1.3,6.5,2.6,13,3.7,19.6s2.2,13.1,3,19.7l.5,5c.2,1.6.3,3.3.4,5s.2,3.3.2,5a22.6,22.6,0,0,1-.1,2.6l-.2,2.6v-.2c-.1,8.3-.2,16.6-.2,24.9,0,4.1,0,8.3.1,12.4s.2,8.3.5,12.4h-1c-.5-4.1-.7-8.3-.9-12.4s-.4-8.3-.5-12.5q-.3-12.5-.3-24.9v-.2l.2-2.3a20.9,20.9,0,0,0,0-2.5c0-1.6-.1-3.2-.2-4.9s-.3-3.2-.5-4.9l-.6-4.9c-.9-6.5-2-13-3.2-19.5s-2.6-13-3.9-19.5a106,106,0,0,1-1.3-20.2c.1-6.7.5-13.3,1-20l.5-4.9.3-2.5a4.4,4.4,0,0,1,.2-1.3l.2-1.2c.6-3.3,1-6.5,1.3-9.8a128.3,128.3,0,0,0,.3-19.6c-.1-3.3-.5-6.5-.9-9.8s-.9-6.5-1.6-9.6v.3a23.6,23.6,0,0,1-1.7-4.6,37.4,37.4,0,0,1-1.2-4.5c-.8-3-1.4-6.1-2-9.1a36.9,36.9,0,0,1-.8-4.6c-.3-1.5-.6-3-1-4.5s-1.7-6-2.5-9-1.7-5.9-2.4-9-.5-6.2-1-9.2c-.9-6.1-1.8-12.3-3-18.3Z"/>
      <path class="dz" d="M1316.4,190.9c.1,7.7.5,15.5,1,23.2s1.3,15.4,2.3,23c.4,3.8,1.1,7.6,1.6,11.5s1.4,7.6,2.3,11.3a50.9,50.9,0,0,0,1.4,5.6l.7,2.8c.3.9.5,1.9.8,2.8s1.2,3.6,1.9,5.4l2.2,5.3h.1c.8,2.9,1.5,5.9,2.2,8.9s1.3,6,1.8,9a92.4,92.4,0,0,1,1.1,9.2,48.5,48.5,0,0,1-.2,9.3h0c-.3,8.4-.6,16.9-.8,25.3s-.3,16.9-.2,25.3c.1,16.9,2.1,33.8,3.1,50.5.5,8.4,1.1,16.6,2.2,25,.1,1.2.2,2.3.2,3.3l.2,3.2.4,6.3c.2,4.3.3,8.5.4,12.8.3,8.4.3,16.9.1,25.4a170,170,0,0,1-2.1,25.6v-.2c-.5,5.2-.9,10.4-1.3,15.6s-.7,10.5-1,15.7-.5,10.4-.8,15.6-.3,10.4-.4,15.7c-.2,10.4-.3,20.8,0,31.3s.9,20.8,2.3,31.1h0a251.6,251.6,0,0,1,7.8,35.2l.7,4.5.5,4.5c.4,3,.6,6,.8,9,.4,6,.7,12,.7,18a253.8,253.8,0,0,1-2.5,35.9c-.8,6-2,11.9-2.9,17.8-.5,2.9-.9,5.9-1.3,8.9a86.6,86.6,0,0,0-.7,8.9h-1c.6-12.1,3.4-23.9,5.1-35.7l.6-4.5.5-4.4c.4-3,.5-6,.8-9,.4-5.9.6-11.9.5-17.9s-.3-12-.7-18c-.3-2.9-.5-5.9-.9-8.9l-.5-4.5-.7-4.4c-.4-3-1-5.9-1.5-8.9s-1.2-5.8-1.9-8.7-1.4-5.9-2.2-8.7-1.6-5.8-2.5-8.7h0a295.8,295.8,0,0,1-2.7-31.3c-.4-10.4-.5-20.9-.4-31.4s.3-20.9.6-31.3l.6-15.7.6-15.7h0v-.2c1.1-8.2,1-16.6.9-25s-.7-16.8-1.2-25.2l-.9-12.5-.5-6.3-.3-3.2c-.1-1-.1-2.1-.2-3-.6-4.2-1.2-8.4-1.5-12.7-.2-2.1-.4-4.2-.5-6.4l-.4-6.3c-.9-17,.8-34,1.3-50.9s1-33.8,2-50.7h0a52.6,52.6,0,0,0,.3-8.9c-.2-3.1-.5-6.1-.9-9.1s-1-6-1.6-8.9-1.4-6-2.2-8.9h0l-2.2-5.4c-.7-1.8-1.3-3.7-1.9-5.5s-.5-1.9-.8-2.8l-.7-2.8c-.6-1.9-.9-3.8-1.4-5.7-.8-3.8-1.4-7.6-2.1-11.4s-1.2-7.6-1.6-11.5c-1-7.7-1.8-15.4-2.3-23.1-.3-3.8-.5-7.7-.7-11.6s-.4-7.7-.5-11.6Z"/>
      <path class="dz" d="M1387.5,262.2l5,43.8c.8,7.3,1.8,14.5,2.7,21.8s2.2,14.5,3.8,21.3v.5c.7,7.5,1.2,15,1.6,22.5s.6,15,.7,22.5-.1,15.1-.6,22.7c-.3,3.8-.7,7.6-1.4,11.5a43.9,43.9,0,0,1-3.2,11.6l.2-.4c-.4,1.2-.8,2.6-1.1,3.9s-.7,2.7-1,4-1.2,5.4-1.8,8.1-1.1,5.5-1.6,8.2l-1.3,8.2c-1.6,11-2.7,22.1-3.4,33.2l-.4,8.4c0,1.4-.1,2.8-.1,4.2v4.1c0,2.8-.2,5.6-.1,8.4l.2,8.4v4.1c.1,1.4.2,2.8.2,4.2l.5,8.4c.1,2.8.4,5.5.6,8.3l.7,8.4.2,2,.3,2.1.5,4.2,1.1,8.3,2.1,16.7c1.4,11.2,2.8,22.3,3.8,33.5s1.9,22.5,2.5,33.7c.2,5.6.4,11.3.3,16.9a80.6,80.6,0,0,1-1.6,16.9h0c.4,10.4,1.2,20.9,2.2,31.3s2.5,20.8,4.3,31.2a294.7,294.7,0,0,0,7.1,30.6c1.5,5,3.2,9.9,5.2,14.8a95.7,95.7,0,0,0,6.9,14l-.8.5a94.1,94.1,0,0,1-7.1-14.2c-1.9-4.8-3.7-9.8-5.2-14.9a285.1,285.1,0,0,1-7.1-30.7c-1.8-10.3-3.2-20.7-4.3-31.2s-1.8-20.9-2.2-31.4h0a77.7,77.7,0,0,0,.8-16.7c-.1-5.6-.5-11.2-.9-16.7-.9-11.2-2.2-22.3-3.7-33.5s-2.9-22.2-4.6-33.3l-2.6-16.6-1.2-8.4-.6-4.2-.3-2.1-.2-2.1-.9-8.4c-.3-2.8-.7-5.6-.8-8.4l-.6-8.5-.3-4.2-.2-4.2-.2-8.5c-.1-2.9,0-5.7-.1-8.5V518c-.1-1.4,0-2.8,0-4.2l.3-8.5c.6-11.3,1.5-22.6,3.1-33.8l1.3-8.4c.5-2.8,1-5.6,1.6-8.4s1.1-5.6,1.8-8.3.7-2.8,1.1-4.2.7-2.7,1.1-4.2h.1v-.3a37.9,37.9,0,0,0,2.6-9.9,98.2,98.2,0,0,0,1.2-10.9c.5-7.3.7-14.7.7-22.1s-.2-14.9-.4-22.3-.6-14.9-1.2-22.3v.5c-.8-3.8-1.4-7.5-1.9-11.2s-.9-7.3-1.3-11c-.7-7.3-1.2-14.7-1.7-22s-.9-14.7-1.2-22.1-.5-14.7-.6-22Z"/>
      <path class="dz" d="M1445,453.5c-1.8,15.5-3.3,31-4.4,46.6-.6,7.8-1,15.5-1.2,23.3v4.4a5.6,5.6,0,0,1-.2,1.7,3.8,3.8,0,0,1-2.4,2.5,3.9,3.9,0,0,1-3.5-.1,3.5,3.5,0,0,1-1.4-1.3,6.4,6.4,0,0,1-.5-1.7l-.6-2.8-1.2-5.8-9.5-45.8-2.3-11.5-1.2-5.7-.3-1.4a5,5,0,0,0-.3-1.2,1.1,1.1,0,0,0-1.3-.6,1,1,0,0,0-.6.5c-.2.2-.2.4-.2.8v2.9l.2,5.9.5,11.7c.7,15.5,1.6,31.1,2.7,46.7s2.4,31.1,4,46.6,3.5,31,6.1,46.4c1.3,7.6,2.7,15.3,4.5,22.9a158.3,158.3,0,0,0,6.9,22.2l-.9.4a145.3,145.3,0,0,1-7.3-22.3c-2-7.6-3.5-15.2-4.9-22.9-2.8-15.4-4.8-30.9-6.5-46.5s-3-31.1-4-46.7-1.9-31.1-2.6-46.7l-.4-11.8-.2-5.8v-2.9a2.9,2.9,0,0,1,.4-2,2.8,2.8,0,0,1,1.7-1.2,3,3,0,0,1,2.1.1,2.3,2.3,0,0,1,1.5,1.4,9.6,9.6,0,0,1,.5,1.7l.3,1.4,1.1,5.7,2.4,11.5,9.3,45.9,1.2,5.7.5,2.9a8.3,8.3,0,0,0,.4,1.2,1.1,1.1,0,0,0,.7.6,2.6,2.6,0,0,0,3.6-1.4,4.1,4.1,0,0,0,.1-1.2v-4.4c.3-7.8.8-15.6,1.4-23.4,1.3-15.6,2.9-31.1,4.9-46.6Z"/>
      <path class="dz" d="M1518,257.1q4.8,35.7,8.9,71.5c1.4,12,2.7,23.9,3.8,35.9l.8,9,.8,9v1.8a1.7,1.7,0,0,1-.1.7,3.5,3.5,0,0,1-1.7,2.4,3.7,3.7,0,0,1-2.9.5,3.9,3.9,0,0,1-2.5-1.7l-.3-.7a1.4,1.4,0,0,1-.2-.6l-.3-1.1-.5-2.2-1.2-4.3-.2-1.1a.5.5,0,0,1-.1-.3h-.3v1.6l.2,2.3.8,9,1.5,18c1,12,1.9,24,2.6,36,1.4,24,2.6,48,2,72.2,0,3-.1,6-.3,9.1l-.3,4.5c-.1,1.5-.3,3-.4,4.6s-.8,6-1.1,8.9-.6,6-.8,8.9a178.5,178.5,0,0,0-.7,17.9c0,6,.1,12,.2,18,.5,23.9,1.7,47.9,4.3,71.6.3,3,.7,5.9,1.1,8.9s.8,5.9,1.2,8.8,1,5.9,1.5,8.8,1.1,5.9,1.6,8.8.6,3.1.8,4.5l.8,4.5,1.5,8.9c1,5.9,2,11.8,2.9,17.8,3.6,23.7,6.9,47.6,8.5,71.7h-1c-5.6-23.4-10.3-47-14.8-70.6l-3.2-17.7-1.5-8.9-.8-4.4c-.3-1.6-.5-2.9-.8-4.4-1.3-5.9-2.3-11.9-3.1-18-.4-3-.9-6-1.2-9s-.7-6-1-9a700.5,700.5,0,0,1-2.4-72.4c.1-6.1.2-12.1.4-18.1s.5-12.2,1.2-18.2c.3-3,.7-6,1.1-9s.9-6,1.2-8.9l.6-4.4.3-4.5c.3-3,.4-5.9.5-8.9.9-23.9-.1-48-1.2-72-.6-12-1.4-24-2.2-36l-1.3-17.9-.7-9-.2-2.3v-1.7a3.8,3.8,0,0,1,.1-1,2.4,2.4,0,0,1,3.6-1,2.7,2.7,0,0,1,.7.8c.1.1.1.3.2.4v.3l.3,1.1,1.1,4.4.5,2.2.3,1.1c0,.2.1.3.1.4l.2.4a1.5,1.5,0,0,0,1.1.8,2.1,2.1,0,0,0,1.5-.3,1.5,1.5,0,0,0,.8-1.1v-.4c0-.1.1-.2,0-.4v-1.2l-.7-8.9-.7-9c-1-12-2.2-24-3.5-35.9-2.5-23.9-5.4-47.8-8.5-71.6Z"/>
      <path d="M1205.6,548.9s-22.2-19.4-4.6-37.8c0,0,12.2-13.6,37.8-8.1,0,0,22.2,7.1,18.5,31.1,0,0-2.5,9.5-13.7,14.7C1235.9,552.5,1223.9,554,1205.6,548.9Z"/>
      <path d="M1246,546.8l4.1,9.5,6.7,10.4s-25,10.8-55.7.1c0,0,5.3-11.9,3.7-18.8Z"/>
      <ellipse class="ea" cx="1214.5" cy="525.8" rx="3.4" ry="7.7" transform="translate(276.2 1459.2) rotate(-68.3)"/>
      <ellipse class="ea" cx="1236.8" cy="526.1" rx="7.7" ry="3.4" transform="translate(-107.2 519.2) rotate(-22.7)"/>
      <path d="M1249.6,509.1s20.9.3,34.8-16.6c0,0,19.9,34.1-28.1,44.8Z"/>
      <path d="M1202.7,510s-19-.1-31.3-16.5c0,0-19,31.7,24.5,43Z"/>
    </g>
  </g>
  <g>
    <g>
      <path d="M208,52c3.2,0,6.5,3.1,10,4-6.7,43.2-10.8,103-11.8,105h-10c-1.8,0-5.8-31.8-11.2-52h0c-5.9,25.5-10.2,60.1-12,60.1-6.6,0-10.8-3.6-12.5-10.7Q121.7,53.1,121.7,51.2V49.9c.1-.5,3.1-2.3,9.2-5.3q3.3,5.4,38.7,109h.8C178,121,180.7,71,182,71h0l17.5,73.2c1.1,0,1.7-.4,1.7-1.3C203.8,108.9,206.2,52,208,52Z"/>
      <path d="M248.5,50l.5.9v6.9c0,.6-.3.9-1,.9H227.5v45.7l.9-.6h6.9c.6.2.9.5.9,1q0,6.9-1.5,6.9h-7.2v61.2H249a1.1,1.1,0,0,1,1,1v5.9c0,.6-.4.9-1,.9l-28-.5-.4-1Q220,70,220.1,50.5h.5C236,50.1,245.3,50,248.5,50Z"/>
      <path d="M262.9,49.4h9.9c.9.2,1.4.6,1.4,1.4V99.2c.9,6.9,1.4,10.7,1.4,11.3v14.3c0,4.9.3,12.5.8,22.7,21.3.7,31.9,1.6,31.9,2.8l-.7,3.6v6.4a1.3,1.3,0,0,1-1.4,1.4,139.8,139.8,0,0,0-29.2-2.8h-4.2a49.5,49.5,0,0,0-7.7.7l-2.9-1.4c.4-14.5.7-25.2.7-32Z"/>
      <path d="M325.8,49.4h9.9c1,.2,1.4.6,1.4,1.4V99.2c1,6.9,1.4,10.7,1.4,11.3v14.3c0,4.9.3,12.5.8,22.7,21.3.7,31.9,1.6,31.9,2.8l-.7,3.6v6.4a1.2,1.2,0,0,1-1.4,1.4,139.5,139.5,0,0,0-29.1-2.8h-4.3a50.5,50.5,0,0,0-7.7.7l-2.9-1.4c.5-14.5.7-25.2.7-32Z"/>
      <path d="M427.5,126.4h-.4q0,1.9-.3,2.1a23.3,23.3,0,0,1-2.2,8.8v.9h-.4v.2a3.6,3.6,0,0,1-1.1,1.3c-3,4.1-5.3,6.1-6.8,6.1s-5.3-3.3-8.5-7.6c0-.2-.1-.3-.1-.5a23,23,0,0,1-2.1-3.3,28,28,0,0,1-2.8-8.3h0a1.7,1.7,0,0,1-1.3-1.3c-2.2-9.4-4.1-19.2-3.2-28.9a47.8,47.8,0,0,1,2.5-19.2,51.2,51.2,0,0,1,2.1-5.8,12.9,12.9,0,0,1,2.8-6h2.9a2.6,2.6,0,0,1,2.5,1.4c5,4,4.4,12,4,18.4a14.1,14.1,0,0,1,1,3.2l.3.2.9.9c5.9-2.1,7.8-2.1,8.2-2.1a6.4,6.4,0,0,1,1.7-3.4V68.6a14.5,14.5,0,0,1-.2-3.6,4.1,4.1,0,0,1-.1-1.1c0-.1-.1-.2-.1-.4l-.3-.4c-1.2-5.3-2.1-8-2.6-8,0-3.3-2.4-6.5-7.1-9.7H405.2c-5.5,2.6-9,4.9-10.6,6.8-3.9,6.2-5.9,10.2-5.9,12.2a15,15,0,0,0-2.5,8.1L386,72c-2,4-2.4,4.5-2.4,11,0,.5-.1.8-.4.8V84q-.3,4.8-.3,9.3a143.4,143.4,0,0,0,7.5,44.6l.9,1.6c1.7,4.5,2.8,7,3.3,7.6h.1a14.6,14.6,0,0,1,2.1,2.8,3,3,0,0,0,.4.8h.4a38.2,38.2,0,0,0,6.5,8.4c8,3.5,15.8,6.3,23.6,1.8,1.7-1.6,3.9-4.7,6.6-9.4a11.9,11.9,0,0,0,.9-1.5c.4-1.1.8-2.3,1.3-3.4a32.8,32.8,0,0,1,1.7-7.9c.2-1.4.5-2.7.8-4s.2-3.5.4-5.5S435.4,127.5,427.5,126.4Z"/>
      <path d="M468.1,53.7h-7.6c-5.8,0-9.6,5-11.5,14.8q-.7,40.4-.8,61.9c1.3,14.2,2.5,21.2,3.8,21.2a4.1,4.1,0,0,0,.1,1.2c1,3.6,2.6,6.7,5.9,8.7a17.8,17.8,0,0,0,4.1,1.7,36.4,36.4,0,0,0,6,.5l2-.4a25.3,25.3,0,0,0,6.3-3.3h.1a16.2,16.2,0,0,0,5.2-5.9c2.5-6.7,4-18.9,4.7-36.6V105.4Q486.4,64.2,468.1,53.7Zm6.9,88.7c0,3.8-1.8,6.5-5.4,8.3H469a6.4,6.4,0,0,1-5.1-.1l-.4.2c0-.3,0-.5-.1-.6l-.3-.2h-.4a.3.3,0,0,1,.1-.2,10.5,10.5,0,0,1-2.3-5.4c-1.4-4.4-1.9-9.1-2.5-13.8a62,62,0,0,1-.6-6.2,75.7,75.7,0,0,1-.7-10.4V82.4a23.1,23.1,0,0,1,6.8-16.7h.7c7.2,0,10.8,13.2,10.8,39.7Z"/>
      <path d="M639.6,172.9c-.3-16.1-5.8-31.5-6-47.6v-.9a11.2,11.2,0,0,1-.6-4.2c-.1-3.8-1.2-7-2.1-10.6-1.3-5.2-3.1-10.7-3.2-16h0c-.7-5.2-1.3-9.2-1.9-11.9a1.5,1.5,0,0,1-1.5-1.2,187.4,187.4,0,0,1-5.1-42.2c-.2-.3-.3-.5-.5-.5-.5-9.2-.7-15.3-.7-18.3a5.1,5.1,0,0,0-.8-2.1l-9,2.1a167.3,167.3,0,0,1-6.8,26.1c-2.2,8.9-4,14.3-5.1,16.2-1.1,7.9-4,15.9-5.8,23.6s-2.7,17.6-5.4,25.9a.8.8,0,0,1-.2.5c-.3,4.7-2.8,8.9-3.6,13.5s-.8,7.8-2.6,11a84.5,84.5,0,0,0-1.3,11.5h-1.5c0-5.5-2.9-14.9-8.9-28.2A274.6,274.6,0,0,1,555.4,94a1.8,1.8,0,0,1-.5-.7,41.9,41.9,0,0,1-2.3-9.1c-.7-2.6-.9-5.5-1.5-7.8a62.5,62.5,0,0,1-1.8-8.6c-.4-2.5-1.5-4.8-1.8-7.3h0q-9.7-37.3-20.3-51.5h-9.7a1.5,1.5,0,0,0-1.6,1.4V35.7c-.6,0-1.8,4.5-3.7,13.4a55.5,55.5,0,0,1-2.5,9c-.2.6-.3,1.3-.5,2v1c0,6.1-2,15.7-6,28.9-1.6,11.1-2.8,17.5-3.7,19v.7q-3,22.5-3,28.2v4.3c-.1.1-.3.2-.4.4a38.2,38.2,0,0,1-.6,8.2c-.5,4.4-.6,8.8-.7,13.2h16.6c1,0,1.5-.4,1.5-1.4V123.1c.6-13.3,1.4-21.1,2.4-23.3l.6-2.6h0c0-4.1.3-6.8,1-8.2.2-3,.6-6,1.1-9v-.6c.8-7.2,1.8-14.4,3-21.5.1-1,.1-2,.2-3.1a1.5,1.5,0,0,0,.4-.6c.7-3.7,1.4-7.4,1.8-11.2.1-1.2.1-2.4.1-3.7V32.9A7,7,0,0,0,525,28h.7c5,11.1,7.5,17.4,7.5,19q14.3,53.7,19.4,62.7c2.5,9.8,7,21.3,13.6,34.6q7.8,22.3,13.5,30.3h.7c0-2.2,1-5.7,3-10.6,4.5-10.4,6.8-16.3,6.8-17.6,1.1-8.5,2.2-13.9,3-16.3s.5-2.2.8-3.3v-3.7c.6-4.9,1.4-7.8,2.2-8.8a56.7,56.7,0,0,1,3.8-13.2c.2-1.2.5-2.4.7-3.5,1.3-5.1,2.4-10.2,3.7-15.3V80.1c1.1,0,2.1-7,3-21.1l6-21.2h.8V48.4l1.5,2.1v2.1c0,1.5,1,9.7,3,24.7v2.8c0,.5.2.7.7.7,1.5,13.1,2.7,19.9,3.7,20.5v3.5c0,6.1.8,9.1,2.3,9.1,0,8.9.8,14.1,2.3,15.6,0,8.9.7,14.1,2.2,15.5v31.7c0,.9.5,1.4,1.5,1.4h6.8c1,0,1.5-.5,1.5-1.4v-3.8Z"/>
      <path d="M671.7,50l.6.9v6.9c0,.6-.4.9-1,.9H650.7v45.7l1-.6h6.9c.6.2.9.5.9,1q0,6.9-1.5,6.9h-7.3v61.2h21.6a1,1,0,0,1,.9,1v5.9a.8.8,0,0,1-.9.9l-28-.5-.4-1q-.6-109.2-.5-128.7h.5C659.3,50.1,668.6,50,671.7,50Z"/>
      <path d="M441.5,269.7h7.7q18.2,10.5,18.2,51.7v12.1c-1,28.3-4.3,42.5-9.9,42.5,0,1.5-2.8,2.8-8.3,3.7-10.8,0-16.1-4-16.1-12.1-1.3,0-2.6-7-3.8-21.2s.3-35,.8-61.9C432,274.7,435.8,269.7,441.5,269.7Zm-3.8,28.7v31.4c0,10.1,2.3,21.8,6.9,35-.5,0-.8.4-.8,1s.8.3.8.9l1.5-.9,4.6.9c3.5-1.8,5.3-4.5,5.3-8.3v-37c0-26.5-3.6-39.7-10.7-39.7h-.7A22.8,22.8,0,0,0,437.7,298.4Z"/>
    </g>
    <path class="eb" d="M583.8,815.9,598.1,773s26.6,14.8,85.3,1.3c0,0,93.5-30,88.6-102.9,0,0,51.3,115.3-98.6,152.7C673.4,824.1,614.2,838.7,583.8,815.9Z"/>
    <path class="ec" d="M583.8,815.9l3-9.5s28,16.2,64.1,9.6a54,54,0,0,1,5.8-.9c12.5-1.2,64.7-8.7,98.8-48.6,0,0,28.8-43.8,16.5-95.1,0,0,26.8,54-11.8,104.7,0,0-17.8,28.4-73.6,44.6C686.6,820.7,619.8,843.5,583.8,815.9Z"/>
    <g>
      <path d="M602.6,498.3s12.1-2.3,12.2,3L595.6,824.9s-7.3,2.8-12.4,0Z"/>
      <path d="M588.7,826.7a12.8,12.8,0,0,1-5.7-1.3l-.3-.2v-.3l19.4-327h.4c.4-.1,8.5-1.6,11.6.9a3.2,3.2,0,0,1,1.2,2.6l-19.2,324h-.3A21,21,0,0,1,588.7,826.7Zm-5-2.1c4.3,2.2,10,.4,11.4,0l19.2-323.4a2.1,2.1,0,0,0-.9-1.7c-2.4-1.9-8.7-1-10.3-.8Z"/>
    </g>
    <g>
      <g>
        <path d="M109.2,477.9s13-3.2,12.9,2.4L91.4,826.2s-7.9,3.4-13.3.8Z"/>
        <path d="M82.9,828.5a11,11,0,0,1-5-1.1h-.3l31.1-349.8h.3c.4-.1,9.2-2.3,12.4.2a3.2,3.2,0,0,1,1.2,2.6L91.9,826.5h-.3A23.7,23.7,0,0,1,82.9,828.5Zm-4.2-1.8c4.5,2,10.8-.3,12.2-.9l30.7-345.5a2.1,2.1,0,0,0-.8-1.8c-2.5-2-9.5-.5-11.2-.1Z"/>
      </g>
      <g>
        <path d="M233.4,481.6s13-3.2,12.9,2.4L215.6,829.8s-7.9,3.5-13.3.9Z"/>
        <path d="M207.2,832.2a11.2,11.2,0,0,1-5.1-1.1h-.3l31.1-349.8h.4c.3,0,9.1-2.2,12.3.3a3.1,3.1,0,0,1,1.2,2.6L216.1,830.2h-.3A23.5,23.5,0,0,1,207.2,832.2Zm-4.3-1.8c4.5,2,10.8-.4,12.2-.9L245.8,484a1.9,1.9,0,0,0-.8-1.8c-2.2-1.8-8.5-.8-11.1-.2Z"/>
      </g>
      <g>
        <path d="M272.3,662.6s1.7,7.2-1.6,7.5L68.8,672s-1.9-4.3-.3-7.5Z"/>
        <path d="M68.4,672.5v-.3c-.1-.2-2-4.6-.2-7.9V664h.3l204.2-1.9v.4c0,.2,1.1,5.1-.4,7.1a2.3,2.3,0,0,1-1.7,1Zm.5-7.5c-1.1,2.5-.2,5.5.2,6.5l201.6-1.9a1.1,1.1,0,0,0,.9-.6c1-1.2.6-4.4.3-5.9Z"/>
      </g>
    </g>
    <g>
      <g>
        <path class="dx" d="M301.2,537.7s10.9-2.8,10.9,2L287.4,831.1s-6.6,3-11.2.7Z"/>
        <path class="dx" d="M280.3,833.2a10.4,10.4,0,0,1-4.3-.9l-.3-.2v-.3l25-294.5h.4c.3-.1,7.7-1.9,10.4.2a2.6,2.6,0,0,1,1.1,2.3L287.9,831.5h-.3A19.6,19.6,0,0,1,280.3,833.2Zm-3.5-1.7c3.7,1.6,8.9-.2,10.1-.7l24.7-291.2a1.7,1.7,0,0,0-.7-1.4c-1.8-1.4-7-.6-9.2-.1Z"/>
      </g>
      <g>
        <path class="dx" d="M423.3,537.8s.8,4.5-1.2,4.6l-120.4-1.3s-1-2.7.1-4.6Z"/>
        <path class="dx" d="M422.2,542.9l-120.8-1.3-.2-.3c0-.2-1-2.9.2-5V536h.3l122,1.3v.5c.1.3.5,3.2-.5,4.4A1.9,1.9,0,0,1,422.2,542.9Zm-120.1-2.3,120,1.3c.2,0,.3-.1.5-.3a6.8,6.8,0,0,0,.3-3.3L302.1,537A5.5,5.5,0,0,0,302.1,540.6Z"/>
      </g>
      <g>
        <path class="dx" d="M399,829.7s.8,4.4-1.2,4.6L277.4,833s-1-2.7.1-4.6Z"/>
        <path class="dx" d="M397.9,834.8l-120.8-1.3-.2-.4c0-.1-1-2.8.2-4.9v-.3h.3l122,1.3v.4c.1.4.6,3.3-.5,4.5A1.9,1.9,0,0,1,397.9,834.8Zm-120.1-2.3,120,1.3c.2,0,.3-.1.5-.3s.4-2.4.3-3.3l-120.8-1.3A5.5,5.5,0,0,0,277.8,832.5Z"/>
      </g>
      <g>
        <path class="dx" d="M381.5,682.1s.5,3.3-1,3.5L291,687.1a4.8,4.8,0,0,1,.1-3.4Z"/>
        <path class="dx" d="M290.6,687.6v-.3a5.8,5.8,0,0,1,.2-3.9l.2-.2,91.1-1.6v.4c.1.3.4,2.5-.4,3.5a1.5,1.5,0,0,1-1,.6Zm.9-3.4a4.1,4.1,0,0,0-.2,2.4l89.2-1.5.3-.2a5.1,5.1,0,0,0,.3-2.3Z"/>
      </g>
    </g>
    <g>
      <polygon points="353.5 219.3 352.9 425.8 358 426 357.6 218.1 353.5 219.3"/>
      <polygon points="363 431.1 347.9 430.7 348.5 215.5 362.6 211.6 363 431.1"/>
    </g>
    <g>
      <polygon points="406.3 273.1 306.4 279.8 306.4 284.9 407 277.2 406.3 273.1"/>
      <polygon points="300.1 291.9 299.8 273.7 411.8 266.3 414.6 283.2 300.1 291.9"/>
    </g>
    <circle class="ed" cx="360.3" cy="269.4" r="12.3"/>
    <path class="ed" d="M349.2,363.8l-.7-3.4c3.9-.8,5-5.8,5.3-7.4l-8-13.4L357,323c8.9-21,3.2-41.6,3.2-41.8l3.3-1c.3.9,6.1,22.1-3.4,44.3v.3l-10,14.9,7.4,12.5v.6C357.3,353.2,356.5,362.3,349.2,363.8Z"/>
    <path class="ed" d="M360.9,367.8c-5.8-1-6.9-6.5-6.6-9.3v-.3l4.7-16.6-2.8-18,3.5-.5,2.9,18.7L357.7,359c0,.9.1,4.7,3.8,5.3Z"/>
    <path class="ed" d="M363.8,293.8v-3.5c.1,0,13.9-.8,26.9-14.1l2.4,2.5C379,292.9,364.4,293.7,363.8,293.8Z"/>
    <path class="ed" d="M357.8,294.2A28.6,28.6,0,0,1,335,283.1l2.8-2.1a25.3,25.3,0,0,0,24.5,9.3l.8,3.4A21.3,21.3,0,0,1,357.8,294.2Z"/>
    <path class="eb" d="M445.7,829.4l12.5-45.1s28.4,13.8,88.3-3.2c0,0,95.3-36,86.4-111.2,0,0,59.2,116.7-94,163.2C538.9,833.1,478.4,851.4,445.7,829.4Z"/>
    <path class="ec" d="M445.7,829.4l2.6-10s29.8,15.3,66.8,6.5l6-1.1c12.8-2,66.5-12.5,99.7-55.6,0,0,27.5-46.9,12.1-99.3,0,0,30.6,54.6-6.7,109,0,0-17,30.3-73.8,50.1C552.4,829,484.3,856,445.7,829.4Z"/>
    <g>
      <path class="ee" d="M448.5,499.6s12.4-3.1,12.8,2.4l-3,336.1s-7.4,3.3-12.8.6Z"/>
      <path class="ee" d="M450.4,840.3a11.4,11.4,0,0,1-5.1-1.1l-.3-.2v-.3l3-339.5h.4c.3-.1,8.6-2.1,12,.3a3.8,3.8,0,0,1,1.4,2.6l-3,336.4h-.3A21.1,21.1,0,0,1,450.4,840.3Zm-4.4-1.9c4.5,2,10.5-.1,11.8-.7l3-335.7a2.7,2.7,0,0,0-1-1.8c-2.6-1.9-9.2-.6-10.8-.2Z"/>
    </g>
  </g>
  <g>
    <g>
      <rect class="ea" x="1085.5" y="287.6" width="334.9" height="140.36"/>
      <path d="M1426.1,433.5H1080V282h346.1Zm-335-11.2h323.8V293.1H1091.1Z"/>
    </g>
    <path class="dx" d="M1081.7,245s-37.2,41,0,80.2a229.7,229.7,0,0,1,49.8-42.8S1077.6,289.3,1081.7,245Z"/>
    <path class="dx" d="M1416.8,241.1s40.6,37.8,6.7,80a226.5,226.5,0,0,0-53.2-38.5S1424.6,285,1416.8,241.1Z"/>
  </g>
  <g>
    <path d="M1099.3,338.4h6.3a9.9,9.9,0,0,1,5.6,1.9,4.1,4.1,0,0,1,1.6,3.5q0,3.3-2.1,4.2l-2.9.8h-4.3c.1,9.4.2,19.2.4,29.4l-.4.2h-1.6l-.8.2c0-.1,0-.2-.1-.2v-.6c-.1-3.5-.2-5.7-.2-6.6v-4c-.2-2.6-.3-4-.3-4.3V348.3C1100.6,347.7,1100.2,344.4,1099.3,338.4Z"/>
    <path d="M1116.2,340.4h3.1c.3,0,.4.1.4.4v14.7c.3,2.2.5,3.3.5,3.5v4.3c0,1.6.1,3.9.2,7,6.7.2,10.1.5,10.1.8l-.2,1.1v2c0,.3-.2.4-.5.4a43.5,43.5,0,0,0-9.2-.9h-1.3l-2.4.3-.9-.5c.1-4.4.2-7.6.2-9.7Z"/>
    <path d="M1143,341.1c1.9,6.8,2.9,10.7,2.9,11.7.2,4.1.6,9.2,1.2,15.5,0,1.3-.1,4-.2,7.9l-1.6.6c-.2,0-.5-1.3-.8-3.9,0-13.3-1.5-23.3-4.3-30h-.3c-.8,2.3-1.4,7.2-2,14.5-.4,2.6-.8,6.4-1.3,11.5v6.5a.3.3,0,0,1-.3.3c-1.7-.1-2.6-.3-2.6-.6v-7.4c0-.8.8-7.4,2.4-19.6a51.2,51.2,0,0,1,1.3-6.5h.2A40,40,0,0,0,1143,341.1Zm-3.9-1.7h3.2c.2,0,.5.5.8,1.4h-5.8v-.6C1137.3,339.9,1137.9,339.7,1139.1,339.4Zm-.8,23.2h.1c.3.1.5.5.5,1.3h-.5c-.1,0-.3-.1-.5-.4v-.7C1138,362.7,1138.1,362.6,1138.3,362.6Zm1.8-.1h.1c.2,0,.3.1.5.4v.8c0,.2-.2.3-.5.5h-.1c-.2,0-.4-.2-.5-.5v-.8C1139.6,362.8,1139.7,362.6,1140.1,362.5Zm1.1.1h.5c.3.1.5.4.5,1v.3c0,.1-.2.3-.5.4h-.2q-.4,0-.6-1.5Zm2,.2c.4.1.6.3.6.4s-.5,1.1-.8,1.1a.3.3,0,0,1-.3-.3v-.9C1142.7,362.9,1142.8,362.8,1143.2,362.8Z"/>
    <path d="M1166.9,333.6h.3a15.9,15.9,0,0,1,3,1v1c-3.5,9.3-5.6,15.5-6.2,18.6.9,11.7,1.7,18,2.3,19s.1,3.2.3,6.3l-.6.3h-4.6a.5.5,0,0,1-.6-.6l.9-12.7a73.6,73.6,0,0,1-1-10.1v-2.5c-2.5-2.6-6.2-6.2-11.1-10.7l-1.6-1.8c1.2-1.7,2-2.6,2.2-2.6s4.7,4.1,11.5,12.2l.6.3c0-1.7,1.6-7.4,4.6-17Z"/>
    <path d="M1188.3,341.4h10.5a.4.4,0,0,1,.4.4v1.8a4.7,4.7,0,0,0,.4,2.3l-.4.2h-.8l-3.7.2.2.4v.7a112.8,112.8,0,0,1-1.3,15.5c.1,3.6.1,6.6.1,9.1a3.1,3.1,0,0,0,.4.9l3.8-.2h2.6c.3,0,.4.2.4.3v4.1l-.2.3-5.8-.3-5.7.3h-3.5c.1-1.4.2-2.4.2-3.1v-.7c0-.2.1-.4.5-.4l3.2.4v-.2a14.1,14.1,0,0,1,.8-4.3V358.7a55.3,55.3,0,0,1,.7-7.1v-4.9l-1.9-.2h-1.5l-.3-.2a20.4,20.4,0,0,0,.5-4.4h0C1188,341.5,1188.1,341.4,1188.3,341.4Z"/>
    <path d="M1222.8,340.6c.3.2.6,1.7.8,4.5q-2.2.6-18.9,1.5v.3c.3,3.2.4,5,.4,5.6h.3l10.9-.7v3.4c0,.6-3.6,1.4-10.9,2.2v.4c.3,10.7.4,16.6.4,17.6a.4.4,0,0,0-.4.4,18.2,18.2,0,0,1-5-1.2c0-.3.2-1.5.4-3.7-.2-14.6-.4-24-.4-28.4C1201.9,342,1209.4,341.4,1222.8,340.6Z"/>
    <path d="M1257.5,333.6h.4a19.2,19.2,0,0,1,2.9,1v1c-3.5,9.3-5.6,15.5-6.2,18.6.9,11.7,1.7,18,2.4,19s.1,3.2.3,6.3l-.7.3h-4.5c-.5,0-.7-.2-.7-.6l.9-12.7a73.6,73.6,0,0,1-1-10.1v-2.5c-2.5-2.6-6.2-6.2-11.1-10.7l-1.6-1.8c1.2-1.7,2-2.6,2.3-2.6s4.6,4.1,11.4,12.2l.7.3c0-1.7,1.5-7.4,4.5-17Z"/>
    <path d="M1267.5,341.7h2.4c3.8,2.1,5.7,7.4,5.7,15.7v3.7c-.3,8.7-1.3,13-3.1,13,0,.5-.9.8-2.6,1.1-3.4,0-5.1-1.2-5.1-3.7-.4,0-.8-2.1-1.2-6.4s.1-10.7.3-18.9Q1264.8,341.7,1267.5,341.7Zm-1.2,8.7V360a33,33,0,0,0,2.1,10.7c-.1,0-.2.1-.2.3s.2.1.2.3l.5-.3,1.4.3a2.7,2.7,0,0,0,1.7-2.6V357.4c0-8-1.1-12.1-3.3-12.1h-.3A6.9,6.9,0,0,0,1266.3,350.4Z"/>
    <path d="M1294.1,342.2h4.5a.6.6,0,0,1,.5.6v13.7c-.4,8.5-.8,14.7-1.1,18.4-1.9,0-2.9.1-2.9.3s-.1-.3-.2-.3l.2-.5v-9.8h-.2c0,3.6-1.5,6.7-4.5,9.5a8.4,8.4,0,0,1-2.1.8h-.8c-5.3,0-7.9-4.3-7.9-12.8l-1.1-17.1v-.3c.1-.3.2-.5.5-.5h2.1c.4.1.6.2.6.5v10.1c.7,6.5,1,10.3,1,11.5v1.1c1.1,2,2.2,3,3.5,3h1.5q4.2,0,4.8-10.8c.3-1.1.6-3.7,1.1-7.9a32.8,32.8,0,0,1-.3-3.9C1293.3,344.1,1293.5,342.2,1294.1,342.2Z"/>
    <path d="M1315,339.7c6.5,0,10.9.6,13,1.7s5.7,3.8,7.9,7.4a11,11,0,0,0,1,3.2,23.6,23.6,0,0,1,.8,4v3c-.9,7.9-1.8,11.8-2.5,11.8s-1.5,2.2-4.5,3.9-6.9,4.5-9.4,4.9c-6,.1-9.6.3-10.9.4l-.2-.4v-1.9c.3-1.5.5-2.3.7-2.3h5.6V352.5a36.1,36.1,0,0,0-1.4-9.1v-1.1a11.3,11.3,0,0,0-.3-2.5C1314.9,339.8,1315,339.8,1315,339.7Zm4.6,4v.2q.3,3.3.3,4.2V352c0,1.5.5,5.9,1.4,13.2a42,42,0,0,1-.7,5.4v.6a24.2,24.2,0,0,0,.3,2.8v1a13.4,13.4,0,0,0,7.2-3.3c1.1-1.2,2.1-3.4,2.9-6.9a27,27,0,0,0,1.4-6.8v-1.8c-.2-2.3-1.9-5.5-5-9.5C1323.5,344.7,1320.9,343.7,1319.6,343.7Z"/>
    <path d="M1348.6,341.1c1.9,6.8,2.9,10.7,2.9,11.7.2,4.1.6,9.2,1.1,15.5,0,1.3,0,4-.1,7.9l-1.7.6a17.6,17.6,0,0,1-.8-3.9q0-19.9-4.2-30h-.3c-.8,2.3-1.4,7.2-2,14.5-.4,2.6-.8,6.4-1.3,11.5v6.5a.3.3,0,0,1-.3.3c-1.8-.1-2.6-.3-2.6-.6v-7.4c0-.8.8-7.4,2.4-19.6a51.2,51.2,0,0,1,1.3-6.5h.2A40,40,0,0,0,1348.6,341.1Zm-4-1.7h3.3c.2,0,.5.5.7,1.4l-.5.2H1343v-.9C1342.9,339.9,1343.5,339.7,1344.6,339.4Zm-.8,23.2h.2c.3.1.5.5.5,1.3h-.5c-.2,0-.3-.1-.5-.4v-.7Q1343.6,362.6,1343.8,362.6Zm1.8-.1h.2c.2,0,.3.1.5.4v.8c0,.2-.2.3-.5.5h-.2l-.5-.5v-.8C1345.1,362.8,1345.3,362.6,1345.6,362.5Zm1.2.1h.5c.3.1.4.4.4,1v.3c0,.1-.1.3-.4.4h-.2c-.3,0-.5-.5-.7-1.5Zm1.9.2c.5.1.7.3.7.4s-.5,1.1-.8,1.1-.4-.1-.4-.3v-.9C1348.2,362.9,1348.4,362.8,1348.7,362.8Z"/>
    <path d="M1360.5,342.6h5.3c3.8,0,8.6,1.4,14.1,4.3,1.3.7,1.9,2.2,1.9,4.6s-2.6,5.6-7.7,8.3h-.9v.5q2.4,2.1,10.8,13.2c.2,1.1,2.5,3.6,6.8,7.6a2.2,2.2,0,0,1,.3,1c-.2,0-.8.8-1.9,2.4-7.7-7.2-13.3-13.3-16.6-18.3L1367,361l-3.7.3h-2.8c.6,4.5,1.1,9.4,1.5,14.6l-.6.3h-3.1c-.8-4.3-1.7-14.7-2.7-31.1v-1.2C1355.6,343.2,1357.2,342.8,1360.5,342.6Zm-2.2,3.1v.9a47.1,47.1,0,0,1,1.9,11h1.2c9.3-.7,13.9-1.9,13.9-3.4s.9-.8.9-1.8c0-3.3-3.4-5.4-10.1-6.4l-5.9-.3Z"/>
    <path d="M1394.1,340.5v2.4a.3.3,0,0,1-.3.3h-6.4v13.9h2.4a.3.3,0,0,1,.3.3c0,1.4-.1,2-.4,2h-2.3V378h6.7c.3.1.4.2.4.3v1.8c0,.2-.1.3-.4.3h-8.7l-.2-.3c-.1-22.3-.2-35.3-.2-39.3h.2Z"/>
    <path d="M1405.3,334.5h1c.5,0,.7,1.7.7,5v5.9c-.8,7.1-1.5,14.7-2,22.8l-.5.3q-3.9,0-3.9-1.2c-2.4-7.9-4-18.4-5-31.4C1395.6,335.5,1398.8,335,1405.3,334.5Zm-8.7,4.4a8.7,8.7,0,0,1,.5,2.8l9.2-3-.3-3.4h-.2C1400.3,337.7,1397.2,338.9,1396.6,338.9Zm.7,6.7v.3l.3,3.3a43.9,43.9,0,0,0,8.7-5.2v-2.3Zm1,8.1a14.4,14.4,0,0,1,.8,2.8,30.1,30.1,0,0,0,6.7-4.5v-1.1l.2-2.8A69.5,69.5,0,0,0,1398.3,353.7Zm1.5,6.4.8,4.2c2.9-2,4.4-3.7,4.4-5v-3.1Zm1.5,7.5,3,.3v-1.4l.2-2C1402.4,366.3,1401.3,367.3,1401.3,367.6Z"/>
  </g>
</svg>
