<?xml version="1.0" encoding="utf-8"?>
<!-- Generator: Adobe Illustrator 21.1.0, SVG Export Plug-In . SVG Version: 6.00 Build 0)  -->
<svg version="1.1" xmlns="http://www.w3.org/2000/svg" xmlns:xlink="http://www.w3.org/1999/xlink" x="0px" y="0px"
	 viewBox="0 0 1440 900" style="enable-background:new 0 0 1440 900;" xml:space="preserve">
<style type="text/css">
	.st0{fill:#FCFCFC;stroke:#B5B5B5;stroke-miterlimit:10;}
	.st1{fill:#522810;}
	.st2{fill:none;stroke:#020202;stroke-width:2;stroke-miterlimit:10;}
	.st3{fill:none;stroke:#020202;stroke-miterlimit:10;}
	.st4{fill:#020202;}
	.st5{fill:#522810;stroke:#3D1C19;stroke-miterlimit:10;}
	.st6{fill:#5E5E5D;}
	.st7{fill:#969695;}
	.st8{fill:none;stroke:#000000;stroke-miterlimit:10;}
	.st9{fill:none;stroke:#000000;stroke-width:0.5;stroke-miterlimit:10;}
	.st10{fill:#FCFCFC;}
	.st11{clip-path:url(#XMLID_5_);fill:#F9061D;}
	.st12{clip-path:url(#XMLID_6_);fill:#F9061D;}
</style>
<g id="ears_left">
	<path class="st0" d="M612.9,75.7c0,0-17.6-39.8-47.2-49.5c0,0-70.3,98.4-110.8,121.3c-6.9,3.9-13.6,8.7-17.6,15.5
		c-3.7,6.2-7.8,16.3-7.5,29.3c0.5,20,12.8,38,31.4,45.4c8.2,3.3,17.8,4.7,27.4,0.9c10.2-4.1,22-19.7,26-30c4.1-10.5,10-31,21-66
		c0,0,17.9-53.7,43.4-75.7c0,0,5.1,16.6,3.5,28.1C582.4,94.9,596,97.5,612.9,75.7z"/>
</g>
<g id="body">
	<path class="st1" d="M632.5,323.5c0,0-0.3-0.3-0.8-0.7c-5.7-5.2-41.9-37.1-93.2-57.3c0,0-36-21-14-61c0,0,34-83,22-98
		c0,0-26-18,3-24c0,0,0,0,0,0c3.9,0,7.7-1.3,10.7-3.7c14.7-12,51.2-39.1,88.3-45.3c0,0,84.6-20.2,143.6,32.8
		c5.2,4.6,9.2,10.4,12,16.7c9.5,21.5,29.9,78.3,24,160.7c-0.3,4.2-0.4,8.4-0.2,12.6c0.3,8.3-1.2,25.5-15.8,37.5
		c-2.7,2.2-5.4,4.5-7.9,6.9c-9.3,8.9-32.1,29.4-50.7,34.8c15.6,14.7,42,12,58,173c2.1,21.1,6,45,16,65c0,0,17.4,0,41,15.8
		c7,4.7,14.9,8,23.1,10.1c10.3,2.6,21.3,8.8,6.9,23.2c0,0-68,46-262,42l-1-4c0,0-30,9-74,0c0,0,39-78,36-151c0,0-8-123,7-147
		C604.5,362.5,617.5,334.5,632.5,323.5z"/>
	<path class="st2" d="M646.5,358.5c0,0,30,173-11,302"/>
	<path class="st3" d="M853.5,598.5c0,0,27,19,8,24"/>
	<path class="st3" d="M872.5,606.5c0,0,22,10,3,15"/>
	<path class="st3" d="M849.5,608.5c0,0-19-18-22-35"/>
	<g id="XMLID_1_">
		<g>
			<path class="st4" d="M745.5,111.5c0,0,51,20,28,95c-9,42-46,87-67,91c-1.9,0.4-57,18.1-58.7,20.3c-2.5-2.6-28.5-27.9-77.8-47.8
				c0,0-20.5-3.5-12.5-48.5c0,0,12.6-38.5,6-77.9c-0.5-2.9-3.7-25.7-10-41.1C553.5,102.5,617.5,147.5,745.5,111.5z"/>
		</g>
		<g>
			<path class="st3" d="M647.8,317.8c-2.5-2.6-28.5-27.9-77.8-47.8c0,0-20.5-3.5-12.5-48.5c0,0,12.6-38.5,6-77.9
				c-0.5-2.9-3.7-25.7-10-41.1c0,0,64,45,192,9c0,0,51,20,28,95c-9,42-46,87-67,91C704.6,297.9,649.5,315.6,647.8,317.8z"/>
			<path class="st3" d="M647.8,317.8c-0.1,0.1,0,0.2,0.2,0.2C648,318,647.9,317.9,647.8,317.8z"/>
		</g>
	</g>
	<path d="M643.8,342.8c1.9-0.5,4.4-0.6,6.9,1c0.9,0.6,1.5,1.4,1.8,2.4c0.7,1.9,1.8,5.7,1.6,8.6c-0.1,2-1.5,3.7-3.5,4.3
		c-1.8,0.5-4.4,0.7-7.6-0.9c-1.3-0.7-2.2-2-2.5-3.4c-0.3-2-0.7-5.2-0.3-8.1C640.6,344.9,641.9,343.3,643.8,342.8z"/>
	<path class="st4" d="M652.7,347.3c0,0,10.8-2.8,11.8,2.2c0,0,2,6-4,7c0,0-6,0.5-6.5-1.3C653.5,353.5,652.7,347.3,652.7,347.3z"/>
	<path class="st4" d="M642.8,347.3c0,0-10.8-2.8-11.8,2.2c0,0-2,6,4,7c0,0,6,0.5,6.5-1.3C642,353.5,642.8,347.3,642.8,347.3z"/>
</g>
<g id="ear_right">
	<path class="st0" d="M779,92c0,0,31-29,61-26c0,0,21.5,96.5,55.5,153.5c0,0,30,42-11,62c0,0-38,12-55-27c0,0-7-4-5-69
		c0,0,2-58-12-88c0,0-11,13-14,24C798.5,121.5,785.5,118.5,779,92z"/>
</g>
<g id="le">
	<path class="st5" d="M766,475c0,0,11,10,6,14L449,709c0,0-8-5-9-12L766,475z"/>
	<path class="st6" d="M531,635c0,0-3-2,0-10l-89.5,55.5c0,0,9.2,2.3,10.5,7.5L531,635z"/>
	<path class="st6" d="M457,704l77.7-53.1c0,0,24.3,60.1,136.3,115.1c0,0,189.5,73.5,274.5-55.5c0,0-64,262-354,126
		C591.5,836.5,477,782.7,457,704z"/>
	<path class="st7" d="M457,704l17-12c0,0,24.6,64.3,91.3,101c3.6,2,7.1,4,10.4,6.3c21.8,14.5,115.9,71.1,221.7,49.2
		c0,0,102.5-35.5,148-138c0,0-25.5,126.5-152.5,160.5c0,0-65,24-175.9-22.6C617.1,848.4,480,798,457,704z"/>
	<path class="st7" d="M440,681l15-9c0,0,9.9,0,11,7l-14,9C452,688,450,682,440,681z"/>
</g>
<g id="hand">
	<path class="st8" d="M717,424c0,0-2.4,11.2-8.6,17.1c-2.2,2.1-4.1,4.5-5.1,7.4c-1.7,4.6-2.3,10.2,6.2,9"/>
	<path d="M708.5,452.5c0,0,38-17,52,22c0,0-1,2-4,2S754,475,754,475l1.5-7c0-1.1-0.9-2.1-1.5-3c-2.4-3.7-9.2-12.5-26.5-12.5
		c-19,0-1,0-1,0l0.6,1.7c0.9,2.8,1.9,4.8,1.9,7.8l-1,2c0,0-10.5-0.5-15.5-12.5"/>
	<path class="st0" d="M748.5,495.5c-8.5,8.5-16.9,7.6-19.9,6.5c-0.7-0.3-2.4-1-3.1-1.5c-9.8-6.8-1-23-1-23c7-14,2-25,2-25
		s23-1,29,15C755.5,467.5,754.5,489.5,748.5,495.5z"/>
	<path d="M728,495c0,0-3-3-5-2c0,0-3,8,1,12C724,505,726,495,728,495z"/>
	<path d="M735.3,497.1c0,0-3.9-1.6-5.4,0.1c0,0,0.3,8.5,5.5,10.7C735.4,507.9,733.6,499.3,735.3,497.1z"/>
	<path d="M744.1,496c0,0-4.2-0.7-5.2,1.3c0,0,2.3,8.2,7.9,9.1C746.8,506.4,743.3,499.9,744.1,496z"/>
	<path class="st8" d="M768.5,464.5c0,0,2,13-9,13"/>
</g>
<g id="face">
	<path class="st0" d="M592,119c0,0,58.5,14.5,129.5-0.5c0,0,12.9,15.5,14.8,22.5c0.2,0.8,0.5,1.7,0.7,2.5c0.6,1.8,1.2,6.6-0.5,18.2
		c-0.5,3.3-1.2,6.6-2.1,9.8c-2.6,9.4-8.9,32.8-10.5,43.4c-0.3,2-1,3.9-2,5.7c-1.9,3.3-5.3,8.8-10.4,13.8c0,0-2.6,5.8-3.6,11.6
		c-0.6,3.4-2.4,6.4-4.9,8.7c-3.5,3.2-8.9,7.4-14.7,10.1c-2.6,1.2-4.8,3-6.4,5.4l0,0c-1.2,1.7-3.2,2.7-5.2,2.5
		c-0.6-0.1-1.4-0.2-2.2-0.4l-54.4-6.6c-2.3-0.3-4.4-1.4-6-3.1c-3.7-4.2-11.1-12.5-16.4-18.1c-1.8-1.9-2.9-4.3-3-6.9
		c-0.1-2.1,0-5,0.9-8.3l2,3c0,0-8.8-11.4-9.9-19.4c-0.2-1.3-0.3-2.5-0.5-3.8c-0.7-4.2-2.1-13.3-0.6-17.8c0,0-6.6-20.6-4.3-37.4
		c0.1-0.9,0.2-1.8,0.3-2.7C582.8,148.2,584.2,137.5,592,119z"/>
	<path d="M645.5,209.5l6.5-7.5c0,0-3-5-12-2C640,200,639.5,205.5,645.5,209.5z"/>
	<path class="st0" d="M651.5,252.5c0,0-11,16-7,37c0,0-18,3-23-3c0,0-9-18,3-32C624.5,254.5,635,250.6,651.5,252.5"/>
	<path class="st0" d="M678.7,262.1c0,0-10.2,15.4-8.2,31.4c0,0-13-2-18-5c0,0-7-18,0-36C652.5,252.5,666.8,254.6,678.7,262.1z"/>
	<path class="st8" d="M616,258c0,0,3.2-1.8,8.8-3.5c11.5-3.4,33-6,57.2,9.5"/>
	<path class="st9" d="M633.5,280.5c0,0-0.9,7.5,1.1,9.7"/>
	<path class="st9" d="M629.5,284.5c0,0-0.5,3.7,0.8,5.3"/>
	<path class="st9" d="M623.5,277.5c0,0-0.2,7.3,1.4,11.2"/>
	<path class="st9" d="M665.5,283.5c0,0-1.2,7.2,0.4,9.1"/>
	<path class="st9" d="M662.5,284.5c0,0-1.3,4.3-0.2,7.2"/>
	<path class="st9" d="M654.5,276.5c0,0-2,7,1,13"/>
	<ellipse transform="matrix(0.9659 -0.2589 0.2589 0.9659 -48.6725 186.4595)" class="st10" cx="683.5" cy="278" rx="6" ry="2.5"/>

		<ellipse transform="matrix(0.9457 -0.3251 0.3251 0.9457 -56.4347 238.0095)" class="st10" cx="683.9" cy="287.9" rx="8.3" ry="3.9"/>
	<ellipse transform="matrix(0.9498 -0.3127 0.3127 0.9498 -58.577 228.8337)" class="st10" cx="684" cy="297" rx="9.4" ry="4.8"/>
	<path class="st2" d="M657,142c0,0-1,7,2,10c0,0,12-8,22-8c0,0,26.5-1.5,27.5,21.5"/>
	<path class="st2" d="M633.5,139.5c0,0,1,6-2,9c0,0-12-18-36-12"/>
	<g>
		<defs>
			<circle id="XMLID_2_" cx="679.5" cy="169.5" r="21.5"/>
		</defs>
		<use xlink:href="#XMLID_2_"  style="overflow:visible;fill:#020202;"/>
		<clipPath id="XMLID_5_">
			<use xlink:href="#XMLID_2_"  style="overflow:visible;"/>
		</clipPath>
		<ellipse class="st11" cx="679.5" cy="169" rx="4.5" ry="4"/>
	</g>
	<g>
		<defs>
			<circle id="XMLID_3_" cx="614.5" cy="168.5" r="20.5"/>
		</defs>
		<use xlink:href="#XMLID_3_"  style="overflow:visible;fill:#020202;"/>
		<clipPath id="XMLID_6_">
			<use xlink:href="#XMLID_3_"  style="overflow:visible;"/>
		</clipPath>
		<ellipse class="st12" cx="614.5" cy="168" rx="4.3" ry="3.8"/>
	</g>
</g>
</svg>
