<?xml version="1.0" encoding="utf-8"?>
<!-- Generator: Adobe Illustrator 21.1.0, SVG Export Plug-In . SVG Version: 6.00 Build 0)  -->
<svg version="1.1" xmlns="http://www.w3.org/2000/svg" xmlns:xlink="http://www.w3.org/1999/xlink" x="0px" y="0px"
	 viewBox="0 0 1440 900" style="enable-background:new 0 0 1440 900;" xml:space="preserve">
<style type="text/css">
	.st0{fill:#055980;}
	.st1{fill:none;stroke:#438ECC;stroke-miterlimit:10;}
	.st2{fill:#522810;}
	.st3{fill:#010202;}
	.st4{fill:#F9F9F9;}
	.st5{fill:none;stroke:#010202;stroke-miterlimit:10;}
	.st6{fill:#E0C712;}
	.st7{fill:#055980;stroke:#438ECC;stroke-miterlimit:10;}
</style>
<g id="body">
	<g id="XMLID_1_">
		<g>
			<path class="st0" d="M466.9,768.2c3,1.5,6,2.6,9.2,3.3c-0.2,1.3-7.3,46.6-56.6,28.9c0,0,3-48,33-49
				C454.1,759.5,460.2,764.8,466.9,768.2z"/>
			<path class="st0" d="M452.5,692.5c0,0,36,18,33,60l-0.1,1.4c-14,4.5-32.9-2.4-32.9-2.4S428.5,738.5,452.5,692.5z"/>
			<path class="st0" d="M940.9,146.6c7.8,4.4,17.7,103.5,16.6,142.9c-3.5,125.1-102.9,246.1-125,272c-2.1,2.4-4.5,5-6,7.3
				c-17,24.7-237.4,186.8-325.2,202.7c-8.5,1.5-17.1,2-25.2,0.1c-3.1-0.7-6.2-1.8-9.2-3.3c-6.7-3.5-12.8-8.7-14.4-16.7
				c0,0,18.9,6.9,32.9,2.4c3.9-1.2,7.4-3.4,10-6.8c0.8-1,1.6-2,2.4-3c7.5-8.5,45.5-62.2,52.7-282.7c0,0-7-146,43-243
				c0,0,90-175,273-100c0,0,13.4,5.6,23.5-0.2c1.5-0.8,7.8-3.6,11.9-4.9c18.3-6,18.4,11.8,14.5,18.1c-0.8,1.4-2.2,3.4-3.3,4.9
				c-0.7,0.8-1.2,1.8-1.8,2.6l0,0l8.6-12c6.3-8.8,14.8-15.8,24.7-20c11.1-4.7,20.8-4.6,4.5,21.8c-1.2,2-2.3,4.1-3.3,6.2
				C944.7,137.7,942.9,141.8,940.9,146.6C941,146.6,941,146.6,940.9,146.6z"/>
		</g>
		<g>
			<path class="st1" d="M713,287c0,0,21.4,33.5,77.3-0.5c18.8-11.4,34.9-26.7,47.6-44.6L911,139.6l0.4-0.5l8.6-12
				c6.3-8.8,14.8-15.8,24.7-20c11.1-4.7,20.8-4.6,4.5,21.8c-1.2,2-2.3,4.1-3.3,6.2c-1.2,2.7-3,6.9-5,11.6c0,0,0,0.1,0,0.1
				c-4.4,10.6-9.5,24.1-10.4,31.9"/>
		</g>
	</g>
</g>
<g id="eyes_x2C_mustache_x2C_hat">
	<path class="st2" d="M866,134c0,0,5.5,1.5,7.5,10.5c0,0-4-6-6-4c0,0,5,3,7,10c0,0-3-6-5-3c0,0,5,4,3,8c0,0-2-5-3-2c0,0,2,2,2,6
		c0,0-2-3-4,0c0,0,4,2,2,6c0,0-1-4-3-1c0,0,3,1,1,5c0,0-1-3-3-1c0,0,4,3,1,6c0,0-2-4-4,0c0,0,4,4-3,9c0,0,2-6-1-4c0,0,1,5-8,8
		c0,0-2,1-5,1c0,0,13-14,10-28c0,0-5.8-25,8.2-26.9c0.3,0,0.6-0.1,0.8-0.1c0,0-9-5,0-17c0,0,3.5-2.8,6.4-7.2c1.1-1.7,2.3-3.4,3.6-5
		c0.6-0.7,1.1-1.4,1.1-1.8c0,0,1,5-1,6c0,0,5,1,4-2c0,0,3,5-2,6c0,0,6,2,6-2c0,0,1,5-2,5c0,0,3,3,4,0c0,0-1,6-4,5c0,0,2,3,4,1
		c0,0-2,5-7,4c0,0,2,4,3,3c0,0-3,3-8,2c0,0,1,3,2,3C873.5,133.5,872.5,136.5,866,134z"/>
	<g id="XMLID_3_">
		<g>
			<path class="st3" d="M786.5,159.7c11.6,0,21,8.9,21,19.9c0,11-9.4,19.9-21,19.9s-21-8.9-21-19.9
				C765.5,168.6,774.9,159.7,786.5,159.7z M800.5,185.5c0-1.1-1.1-2-2.5-2s-2.5,0.9-2.5,2s1.1,2,2.5,2S800.5,186.6,800.5,185.5z
				 M799.5,178.5c6-14-15-16-15-16l-1,6C795.5,165.5,799.5,178.5,799.5,178.5z"/>
			<ellipse class="st4" cx="798" cy="185.5" rx="2.5" ry="2"/>
			<path class="st4" d="M784.5,162.5c0,0,21,2,15,16c0,0-4-13-16-10L784.5,162.5z"/>
		</g>
		<g>
			<path class="st5" d="M807.5,179.6c0,11-9.4,19.9-21,19.9s-21-8.9-21-19.9c0-11,9.4-19.9,21-19.9S807.5,168.6,807.5,179.6z"/>
		</g>
	</g>
	<g id="XMLID_4_">
		<g>
			<path class="st3" d="M597.5,197c0.8-0.8,1.5-1.6,2.3-2.4l13.4-14.5c1.6-1.7,2.7-3.1,3.5-4.5c1-1.7,2.1-3.3,3.3-4.9l5.8-8.2
				l1.7-2.4c4.1-5.7,7.5-11.9,10.3-18.3l2.8-6.3l13,20l-52,61l-18-8l0.1-0.1C588.6,205.1,593.2,201.3,597.5,197z"/>
			<path class="st3" d="M625.7,162.6l-5.8,8.2c-1.1,1.6-2.2,3.2-3.3,4.9c-0.8,1.3-1.9,2.7-3.5,4.5l-13.4,14.5
				c-0.8,0.8-1.5,1.6-2.3,2.4c-0.5-4.1-6.4-32.4-73-67.5c0,0,44-33,65-73c0,0,35,100,36,105L625.7,162.6L625.7,162.6z"/>
		</g>
		<g>
			<path class="st5" d="M597.5,197c-4.2,4.3-8.9,8.1-13.9,11.4l-0.1,0.1l18,8l52-61l-13-20l-2.8,6.3c-2.8,6.4-6.3,12.6-10.3,18.3
				l-1.7,2.4l-5.8,8.2c-1.1,1.6-2.2,3.2-3.3,4.9c-0.8,1.3-1.9,2.7-3.5,4.5l-13.4,14.5C599,195.4,598.2,196.2,597.5,197z"/>
			<path class="st5" d="M597.5,197.5c0,0,0-0.2,0-0.5c-0.5-4.1-6.4-32.4-73-67.5c0,0,44-33,65-73c0,0,35,100,36,105l0.2,1.1"/>
		</g>
	</g>
	<g id="XMLID_2_">
		<g>
			<path class="st3" d="M604.4,264.5c2.6,9.1,3.4,23.7-10.9,38c0.5-0.6,5.8-7.1,3-9c0,0-11-7-8-18c0,0,3-14,15-11H604.4z"/>
		</g>
		<g>
			<path class="st5" d="M593.5,302.5C593.5,302.5,593.5,302.5,593.5,302.5C593.5,302.5,593.5,302.5,593.5,302.5c0.6-0.7,5.8-7.1,3-9
				c0,0-11-7-8-18c0,0,3-14,15-11h0.9h0.1"/>
			<path class="st5" d="M600.5,255.5c0,0,2.3,3.5,3.9,9c2.6,9.1,3.4,23.7-10.9,38"/>
		</g>
	</g>
	<path class="st1" d="M859,242c0,0,38,186-255,451"/>
	<path class="st1" d="M912.5,195.5c0,0,104,176-285,494"/>
	<path class="st1" d="M891.5,224.5c0,0,66,84-138,338"/>
	<path class="st1" d="M936.5,220.5c0,0,40,119-96,283"/>
</g>
<g id="legs">
	<polygon class="st0" points="635.4,685.6 655.9,686.6 655.2,747.1 634.3,746.9 	"/>
	<path class="st2" d="M609.6,744.9l62.3,1.3l-23.2,45.2c0,0,52.5-14.3,48,24.1l-66-6.6c0,0-0.5-8.5,5.8-22.3
		C636.5,786.7,632.3,766.5,609.6,744.9z"/>
	<path class="st0" d="M673.5,672.5l19-19l23,17c0,0,11,7,2,25l-9,33l-14-3l5-30L673.5,672.5z"/>
	<path class="st2" d="M673.5,718.5l62,15l-35,30c0,0,48,0,31,36l-59-31C672.5,768.5,693.5,744.5,673.5,718.5z"/>
</g>
<g id="cane">
	<ellipse class="st6" cx="800.5" cy="526" rx="22" ry="22.5"/>
	<path class="st2" d="M815.5,542.5l20,257l-7,1l-23.9-214.8l-4.1-37.2C800.5,548.5,812.5,549.1,815.5,542.5z"/>
</g>
<g id="arm">
	<path class="st7" d="M728,478c0.3-0.6-13,6.6-13,8c0,0.7,10,33,58,32c0,0,15.5,4.6,15.1,10c-0.1,1.5,0.3,3,1.5,3.9
		c1.1,0.8,2.4,1.1,3.6-1.2c1.9-3.7,1-8.3-2.1-11c-1.8-1.5-4.5-2.7-8.4-2.3c0,0,9.7-2.7,15.9,4.5c1,1.1,2.8,1.3,3.8,0.1
		c0.9-1.1,1.9-3.1-1.6-6.6c0,0-2-3-9-2s-2,0-2,0s5.1-5.1,12.3-2.7c1.8,0.6,3.8,0.3,5.3-0.9c1.3-1.1,1.8-2.7-1.6-4.9
		c-3.3-2.1-7.3-2.7-11.1-1.9c-3.7,0.8-8.3,2.8-11.9,7.4C782.5,510.5,732.5,500.5,728,478z"/>
</g>
</svg>
